<svg width="769" height="298" viewBox="0 0 769 298" fill="none" xmlns="http://www.w3.org/2000/svg">
<mask id="path-1-outside-1_412_969" maskUnits="userSpaceOnUse" x="104.125" y="110.912" width="663" height="188" fill="black">
<rect fill="white" x="104.125" y="110.912" width="663" height="188"/>
<path d="M291.325 294.912H219.841V263.448H234.193L227.569 245.232H166.573L159.121 263.448H175.957V294.912H105.301V263.448H121.585L172.921 146.976H148.081V115.512H209.629L274.213 263.448H291.325V294.912ZM217.633 218.736L198.865 168.228H197.209L177.061 218.736H217.633ZM430.85 240.54C430.85 259.124 424.594 273.292 412.082 283.044C399.57 292.796 382.366 297.672 360.47 297.672C348.326 297.672 336.182 296.108 324.038 292.98C312.078 289.852 302.602 285.16 295.61 278.904L301.13 234.468L330.662 237.228L330.386 259.032C336.642 262.344 341.978 264.368 346.394 265.104C350.81 265.656 354.582 265.932 357.71 265.932C367.462 265.932 375.466 264.736 381.722 262.344C387.978 259.768 391.106 253.972 391.106 244.956C391.106 235.02 387.426 228.396 380.066 225.084C372.706 221.588 364.058 218.92 354.122 217.08C345.474 215.608 336.734 213.492 327.902 210.732C319.254 207.788 311.986 203.096 306.098 196.656C300.21 190.032 297.266 180.28 297.266 167.4C297.266 147.344 304.074 133.268 317.69 125.172C331.306 116.892 346.21 112.752 362.402 112.752C374.178 112.752 385.402 114.592 396.074 118.272C406.746 121.768 414.934 126.552 420.638 132.624L422.294 171.54L392.762 174.3L390.278 153.324C385.678 150.196 380.986 148.08 376.202 146.976C371.602 145.872 367.094 145.32 362.678 145.32C355.318 145.32 349.154 146.608 344.186 149.184C339.402 151.76 337.01 156.268 337.01 162.708C337.01 170.252 340.138 175.496 346.394 178.44C352.65 181.384 359.826 183.776 367.922 185.616C375.282 187.088 383.838 189.204 393.59 191.964C403.526 194.54 412.174 199.508 419.534 206.868C427.078 214.044 430.85 225.268 430.85 240.54ZM594.971 174.024C594.971 194.448 588.255 209.72 574.823 219.84C561.575 229.776 546.119 234.744 528.455 234.744H500.855V263.448H528.455V294.912H444.551V263.448H463.871V146.976H444.551V115.512H526.799C549.063 115.512 565.991 120.756 577.583 131.244C589.175 141.732 594.971 155.992 594.971 174.024ZM555.227 174.576C555.227 165.744 552.743 158.936 547.775 154.152C542.991 149.368 534.435 146.976 522.107 146.976H500.855V203.556H521.555C534.251 203.556 542.991 200.888 547.775 195.552C552.743 190.216 555.227 183.224 555.227 174.576ZM766.121 294.912H694.637V263.448H708.989L702.365 245.232H641.369L633.917 263.448H650.753V294.912H580.097V263.448H596.381L647.717 146.976H622.877V115.512H684.425L749.009 263.448H766.121V294.912ZM692.429 218.736L673.661 168.228H672.005L651.857 218.736H692.429Z"/>
</mask>
<path d="M291.325 294.912H219.841V263.448H234.193L227.569 245.232H166.573L159.121 263.448H175.957V294.912H105.301V263.448H121.585L172.921 146.976H148.081V115.512H209.629L274.213 263.448H291.325V294.912ZM217.633 218.736L198.865 168.228H197.209L177.061 218.736H217.633ZM430.85 240.54C430.85 259.124 424.594 273.292 412.082 283.044C399.57 292.796 382.366 297.672 360.47 297.672C348.326 297.672 336.182 296.108 324.038 292.98C312.078 289.852 302.602 285.16 295.61 278.904L301.13 234.468L330.662 237.228L330.386 259.032C336.642 262.344 341.978 264.368 346.394 265.104C350.81 265.656 354.582 265.932 357.71 265.932C367.462 265.932 375.466 264.736 381.722 262.344C387.978 259.768 391.106 253.972 391.106 244.956C391.106 235.02 387.426 228.396 380.066 225.084C372.706 221.588 364.058 218.92 354.122 217.08C345.474 215.608 336.734 213.492 327.902 210.732C319.254 207.788 311.986 203.096 306.098 196.656C300.21 190.032 297.266 180.28 297.266 167.4C297.266 147.344 304.074 133.268 317.69 125.172C331.306 116.892 346.21 112.752 362.402 112.752C374.178 112.752 385.402 114.592 396.074 118.272C406.746 121.768 414.934 126.552 420.638 132.624L422.294 171.54L392.762 174.3L390.278 153.324C385.678 150.196 380.986 148.08 376.202 146.976C371.602 145.872 367.094 145.32 362.678 145.32C355.318 145.32 349.154 146.608 344.186 149.184C339.402 151.76 337.01 156.268 337.01 162.708C337.01 170.252 340.138 175.496 346.394 178.44C352.65 181.384 359.826 183.776 367.922 185.616C375.282 187.088 383.838 189.204 393.59 191.964C403.526 194.54 412.174 199.508 419.534 206.868C427.078 214.044 430.85 225.268 430.85 240.54ZM594.971 174.024C594.971 194.448 588.255 209.72 574.823 219.84C561.575 229.776 546.119 234.744 528.455 234.744H500.855V263.448H528.455V294.912H444.551V263.448H463.871V146.976H444.551V115.512H526.799C549.063 115.512 565.991 120.756 577.583 131.244C589.175 141.732 594.971 155.992 594.971 174.024ZM555.227 174.576C555.227 165.744 552.743 158.936 547.775 154.152C542.991 149.368 534.435 146.976 522.107 146.976H500.855V203.556H521.555C534.251 203.556 542.991 200.888 547.775 195.552C552.743 190.216 555.227 183.224 555.227 174.576ZM766.121 294.912H694.637V263.448H708.989L702.365 245.232H641.369L633.917 263.448H650.753V294.912H580.097V263.448H596.381L647.717 146.976H622.877V115.512H684.425L749.009 263.448H766.121V294.912ZM692.429 218.736L673.661 168.228H672.005L651.857 218.736H692.429Z" fill="#DD995B"/>
<path d="M291.325 294.912V295.912H292.325V294.912H291.325ZM219.841 294.912H218.841V295.912H219.841V294.912ZM219.841 263.448V262.448H218.841V263.448H219.841ZM234.193 263.448V264.448H235.621L235.133 263.106L234.193 263.448ZM227.569 245.232L228.509 244.89L228.27 244.232H227.569V245.232ZM166.573 245.232V244.232H165.902L165.648 244.853L166.573 245.232ZM159.121 263.448L158.196 263.069L157.632 264.448H159.121V263.448ZM175.957 263.448H176.957V262.448H175.957V263.448ZM175.957 294.912V295.912H176.957V294.912H175.957ZM105.301 294.912H104.301V295.912H105.301V294.912ZM105.301 263.448V262.448H104.301V263.448H105.301ZM121.585 263.448V264.448H122.237L122.5 263.851L121.585 263.448ZM172.921 146.976L173.836 147.379L174.455 145.976H172.921V146.976ZM148.081 146.976H147.081V147.976H148.081V146.976ZM148.081 115.512V114.512H147.081V115.512H148.081ZM209.629 115.512L210.546 115.112L210.284 114.512H209.629V115.512ZM274.213 263.448L273.297 263.848L273.559 264.448H274.213V263.448ZM291.325 263.448H292.325V262.448H291.325V263.448ZM217.633 218.736V219.736H219.072L218.571 218.388L217.633 218.736ZM198.865 168.228L199.803 167.88L199.56 167.228H198.865V168.228ZM197.209 168.228V167.228H196.532L196.28 167.858L197.209 168.228ZM177.061 218.736L176.132 218.366L175.586 219.736H177.061V218.736ZM291.325 293.912H219.841V295.912H291.325V293.912ZM220.841 294.912V263.448H218.841V294.912H220.841ZM219.841 264.448H234.193V262.448H219.841V264.448ZM235.133 263.106L228.509 244.89L226.629 245.574L233.253 263.79L235.133 263.106ZM227.569 244.232H166.573V246.232H227.569V244.232ZM165.648 244.853L158.196 263.069L160.047 263.827L167.499 245.611L165.648 244.853ZM159.121 264.448H175.957V262.448H159.121V264.448ZM174.957 263.448V294.912H176.957V263.448H174.957ZM175.957 293.912H105.301V295.912H175.957V293.912ZM106.301 294.912V263.448H104.301V294.912H106.301ZM105.301 264.448H121.585V262.448H105.301V264.448ZM122.5 263.851L173.836 147.379L172.006 146.573L120.67 263.045L122.5 263.851ZM172.921 145.976H148.081V147.976H172.921V145.976ZM149.081 146.976V115.512H147.081V146.976H149.081ZM148.081 116.512H209.629V114.512H148.081V116.512ZM208.713 115.912L273.297 263.848L275.13 263.048L210.546 115.112L208.713 115.912ZM274.213 264.448H291.325V262.448H274.213V264.448ZM290.325 263.448V294.912H292.325V263.448H290.325ZM218.571 218.388L199.803 167.88L197.928 168.576L216.696 219.084L218.571 218.388ZM198.865 167.228H197.209V169.228H198.865V167.228ZM196.28 167.858L176.132 218.366L177.99 219.107L198.138 168.599L196.28 167.858ZM177.061 219.736H217.633V217.736H177.061V219.736ZM412.082 283.044L412.696 283.833L412.082 283.044ZM324.038 292.98L323.785 293.948L323.788 293.948L324.038 292.98ZM295.61 278.904L294.617 278.781L294.553 279.3L294.943 279.649L295.61 278.904ZM301.13 234.468L301.223 233.472L300.257 233.382L300.137 234.345L301.13 234.468ZM330.662 237.228L331.662 237.241L331.673 236.318L330.755 236.232L330.662 237.228ZM330.386 259.032L329.386 259.019L329.378 259.63L329.918 259.916L330.386 259.032ZM346.394 265.104L346.229 266.09L346.249 266.094L346.27 266.096L346.394 265.104ZM381.722 262.344L382.079 263.278L382.091 263.274L382.102 263.269L381.722 262.344ZM380.066 225.084L379.637 225.987L379.646 225.992L379.655 225.996L380.066 225.084ZM354.122 217.08L354.304 216.097L354.297 216.096L354.29 216.094L354.122 217.08ZM327.902 210.732L327.579 211.679L327.591 211.683L327.603 211.687L327.902 210.732ZM306.098 196.656L305.35 197.321L305.36 197.331L306.098 196.656ZM317.69 125.172L318.201 126.032L318.209 126.027L317.69 125.172ZM396.074 118.272L395.748 119.217L395.755 119.22L395.762 119.222L396.074 118.272ZM420.638 132.624L421.637 132.582L421.621 132.21L421.367 131.939L420.638 132.624ZM422.294 171.54L422.387 172.536L423.333 172.447L423.293 171.498L422.294 171.54ZM392.762 174.3L391.769 174.418L391.883 175.387L392.855 175.296L392.762 174.3ZM390.278 153.324L391.271 153.207L391.217 152.754L390.84 152.497L390.278 153.324ZM376.202 146.976L375.968 147.949L375.977 147.951L376.202 146.976ZM344.186 149.184L343.725 148.296L343.718 148.3L343.712 148.304L344.186 149.184ZM346.394 178.44L346.82 177.535L346.394 178.44ZM367.922 185.616L367.7 186.591L367.713 186.594L367.726 186.597L367.922 185.616ZM393.59 191.964L393.317 192.926L393.328 192.929L393.339 192.932L393.59 191.964ZM419.534 206.868L418.827 207.575L418.835 207.584L418.845 207.593L419.534 206.868ZM429.85 240.54C429.85 258.875 423.693 272.727 411.467 282.255L412.696 283.833C425.495 273.858 431.85 259.373 431.85 240.54H429.85ZM411.467 282.255C399.187 291.827 382.226 296.672 360.47 296.672V298.672C382.505 298.672 399.953 293.765 412.696 283.833L411.467 282.255ZM360.47 296.672C348.413 296.672 336.352 295.119 324.287 292.012L323.788 293.948C336.011 297.097 348.239 298.672 360.47 298.672V296.672ZM324.291 292.013C312.437 288.913 303.119 284.281 296.277 278.159L294.943 279.649C302.085 286.039 311.718 290.792 323.785 293.948L324.291 292.013ZM296.602 279.027L302.122 234.591L300.137 234.345L294.617 278.781L296.602 279.027ZM301.037 235.464L330.569 238.224L330.755 236.232L301.223 233.472L301.037 235.464ZM329.662 237.215L329.386 259.019L331.386 259.045L331.662 237.241L329.662 237.215ZM329.918 259.916C336.22 263.253 341.664 265.33 346.229 266.09L346.558 264.118C342.291 263.407 337.063 261.436 330.854 258.148L329.918 259.916ZM346.27 266.096C350.711 266.652 354.527 266.932 357.71 266.932V264.932C354.636 264.932 350.908 264.661 346.518 264.112L346.27 266.096ZM357.71 266.932C367.533 266.932 375.669 265.729 382.079 263.278L381.365 261.41C375.262 263.743 367.39 264.932 357.71 264.932V266.932ZM382.102 263.269C385.437 261.896 387.963 259.647 389.64 256.54C391.306 253.452 392.106 249.572 392.106 244.956H390.106C390.106 249.357 389.341 252.882 387.88 255.59C386.428 258.279 384.262 260.217 381.341 261.419L382.102 263.269ZM392.106 244.956C392.106 239.869 391.164 235.55 389.22 232.05C387.268 228.537 384.339 225.91 380.476 224.172L379.655 225.996C383.152 227.57 385.743 229.911 387.472 233.022C389.207 236.146 390.106 240.107 390.106 244.956H392.106ZM380.495 224.181C373.04 220.64 364.306 217.949 354.304 216.097L353.94 218.063C363.81 219.891 372.371 222.536 379.637 225.987L380.495 224.181ZM354.29 216.094C345.688 214.63 336.992 212.525 328.2 209.778L327.603 211.687C336.476 214.459 345.259 216.586 353.954 218.066L354.29 216.094ZM328.224 209.785C319.727 206.893 312.605 202.291 306.836 195.981L305.36 197.331C311.367 203.901 318.78 208.683 327.579 211.679L328.224 209.785ZM306.845 195.992C301.18 189.619 298.266 180.144 298.266 167.4H296.266C296.266 180.416 299.239 190.446 305.35 197.32L306.845 195.992ZM298.266 167.4C298.266 147.589 304.971 133.898 318.201 126.032L317.179 124.313C303.177 132.638 296.266 147.1 296.266 167.4H298.266ZM318.209 126.027C331.666 117.843 346.39 113.752 362.402 113.752V111.752C346.03 111.752 330.945 115.941 317.17 124.318L318.209 126.027ZM362.402 113.752C374.072 113.752 385.185 115.575 395.748 119.217L396.4 117.327C385.618 113.609 374.284 111.752 362.402 111.752V113.752ZM395.762 119.222C406.328 122.684 414.353 127.394 419.909 133.309L421.367 131.939C415.515 125.71 407.163 120.853 396.385 117.322L395.762 119.222ZM419.639 132.667L421.295 171.583L423.293 171.498L421.637 132.582L419.639 132.667ZM422.201 170.544L392.669 173.304L392.855 175.296L422.387 172.536L422.201 170.544ZM393.755 174.183L391.271 153.207L389.285 153.442L391.769 174.418L393.755 174.183ZM390.84 152.497C386.151 149.309 381.346 147.137 376.427 146.002L375.977 147.951C380.625 149.023 385.204 151.083 389.715 154.151L390.84 152.497ZM376.435 146.004C371.764 144.883 367.178 144.32 362.678 144.32V146.32C367.01 146.32 371.439 146.862 375.968 147.948L376.435 146.004ZM362.678 144.32C355.206 144.32 348.873 145.627 343.725 148.296L344.646 150.072C349.434 147.589 355.429 146.32 362.678 146.32V144.32ZM343.712 148.304C338.537 151.09 336.01 155.982 336.01 162.708H338.01C338.01 156.554 340.266 152.431 344.66 150.065L343.712 148.304ZM336.01 162.708C336.01 166.618 336.821 170.002 338.497 172.811C340.176 175.626 342.684 177.8 345.968 179.345L346.82 177.535C343.847 176.136 341.663 174.216 340.215 171.787C338.762 169.352 338.01 166.342 338.01 162.708H336.01ZM345.968 179.345C352.301 182.325 359.547 184.738 367.7 186.591L368.143 184.641C360.104 182.814 352.999 180.443 346.82 177.535L345.968 179.345ZM367.726 186.597C375.053 188.062 383.582 190.171 393.317 192.926L393.862 191.002C384.093 188.237 375.511 186.114 368.118 184.636L367.726 186.597ZM393.339 192.932C403.1 195.463 411.591 200.339 418.827 207.575L420.241 206.161C412.757 198.677 403.952 193.618 393.841 190.996L393.339 192.932ZM418.845 207.593C426.113 214.507 429.85 225.414 429.85 240.54H431.85C431.85 225.123 428.042 213.582 420.223 206.144L418.845 207.593ZM574.823 219.84L575.423 220.64L575.424 220.639L574.823 219.84ZM500.855 234.744V233.744H499.855V234.744H500.855ZM500.855 263.448H499.855V264.448H500.855V263.448ZM528.455 263.448H529.455V262.448H528.455V263.448ZM528.455 294.912V295.912H529.455V294.912H528.455ZM444.551 294.912H443.551V295.912H444.551V294.912ZM444.551 263.448V262.448H443.551V263.448H444.551ZM463.871 263.448V264.448H464.871V263.448H463.871ZM463.871 146.976H464.871V145.976H463.871V146.976ZM444.551 146.976H443.551V147.976H444.551V146.976ZM444.551 115.512V114.512H443.551V115.512H444.551ZM577.583 131.244L578.253 130.503L577.583 131.244ZM547.775 154.152L547.067 154.859L547.074 154.866L547.081 154.872L547.775 154.152ZM500.855 146.976V145.976H499.855V146.976H500.855ZM500.855 203.556H499.855V204.556H500.855V203.556ZM547.775 195.552L547.043 194.871L547.036 194.878L547.03 194.885L547.775 195.552ZM593.971 174.024C593.971 194.209 587.347 209.152 574.221 219.041L575.424 220.639C589.162 210.289 595.971 194.687 595.971 174.024H593.971ZM574.223 219.04C561.16 228.837 545.918 233.744 528.455 233.744V235.744C546.32 235.744 561.99 230.715 575.423 220.64L574.223 219.04ZM528.455 233.744H500.855V235.744H528.455V233.744ZM499.855 234.744V263.448H501.855V234.744H499.855ZM500.855 264.448H528.455V262.448H500.855V264.448ZM527.455 263.448V294.912H529.455V263.448H527.455ZM528.455 293.912H444.551V295.912H528.455V293.912ZM445.551 294.912V263.448H443.551V294.912H445.551ZM444.551 264.448H463.871V262.448H444.551V264.448ZM464.871 263.448V146.976H462.871V263.448H464.871ZM463.871 145.976H444.551V147.976H463.871V145.976ZM445.551 146.976V115.512H443.551V146.976H445.551ZM444.551 116.512H526.799V114.512H444.551V116.512ZM526.799 116.512C548.919 116.512 565.569 121.723 576.912 131.986L578.253 130.503C566.413 119.789 549.206 114.512 526.799 114.512V116.512ZM576.912 131.986C588.261 142.254 593.971 156.227 593.971 174.024H595.971C595.971 155.757 590.088 141.21 578.253 130.503L576.912 131.986ZM556.227 174.576C556.227 165.553 553.683 158.454 548.468 153.432L547.081 154.872C551.802 159.419 554.227 165.936 554.227 174.576H556.227ZM548.482 153.445C543.406 148.369 534.502 145.976 522.107 145.976V147.976C534.367 147.976 542.575 150.367 547.067 154.859L548.482 153.445ZM522.107 145.976H500.855V147.976H522.107V145.976ZM499.855 146.976V203.556H501.855V146.976H499.855ZM500.855 204.556H521.555V202.556H500.855V204.556ZM521.555 204.556C534.33 204.556 543.442 201.883 548.519 196.22L547.03 194.885C542.539 199.893 534.171 202.556 521.555 202.556V204.556ZM548.506 196.234C553.678 190.679 556.227 183.427 556.227 174.576H554.227C554.227 183.021 551.807 189.753 547.043 194.871L548.506 196.234ZM766.121 294.912V295.912H767.121V294.912H766.121ZM694.637 294.912H693.637V295.912H694.637V294.912ZM694.637 263.448V262.448H693.637V263.448H694.637ZM708.989 263.448V264.448H710.416L709.929 263.106L708.989 263.448ZM702.365 245.232L703.305 244.89L703.065 244.232H702.365V245.232ZM641.369 245.232V244.232H640.697L640.443 244.853L641.369 245.232ZM633.917 263.448L632.991 263.069L632.427 264.448H633.917V263.448ZM650.753 263.448H651.753V262.448H650.753V263.448ZM650.753 294.912V295.912H651.753V294.912H650.753ZM580.097 294.912H579.097V295.912H580.097V294.912ZM580.097 263.448V262.448H579.097V263.448H580.097ZM596.381 263.448V264.448H597.033L597.296 263.851L596.381 263.448ZM647.717 146.976L648.632 147.379L649.25 145.976H647.717V146.976ZM622.877 146.976H621.877V147.976H622.877V146.976ZM622.877 115.512V114.512H621.877V115.512H622.877ZM684.425 115.512L685.341 115.112L685.079 114.512H684.425V115.512ZM749.009 263.448L748.092 263.848L748.354 264.448H749.009V263.448ZM766.121 263.448H767.121V262.448H766.121V263.448ZM692.429 218.736V219.736H693.867L693.366 218.388L692.429 218.736ZM673.661 168.228L674.598 167.88L674.356 167.228H673.661V168.228ZM672.005 168.228V167.228H671.327L671.076 167.858L672.005 168.228ZM651.857 218.736L650.928 218.366L650.381 219.736H651.857V218.736ZM766.121 293.912H694.637V295.912H766.121V293.912ZM695.637 294.912V263.448H693.637V294.912H695.637ZM694.637 264.448H708.989V262.448H694.637V264.448ZM709.929 263.106L703.305 244.89L701.425 245.574L708.049 263.79L709.929 263.106ZM702.365 244.232H641.369V246.232H702.365V244.232ZM640.443 244.853L632.991 263.069L634.842 263.827L642.294 245.611L640.443 244.853ZM633.917 264.448H650.753V262.448H633.917V264.448ZM649.753 263.448V294.912H651.753V263.448H649.753ZM650.753 293.912H580.097V295.912H650.753V293.912ZM581.097 294.912V263.448H579.097V294.912H581.097ZM580.097 264.448H596.381V262.448H580.097V264.448ZM597.296 263.851L648.632 147.379L646.802 146.573L595.466 263.045L597.296 263.851ZM647.717 145.976H622.877V147.976H647.717V145.976ZM623.877 146.976V115.512H621.877V146.976H623.877ZM622.877 116.512H684.425V114.512H622.877V116.512ZM683.508 115.912L748.092 263.848L749.925 263.048L685.341 115.112L683.508 115.912ZM749.009 264.448H766.121V262.448H749.009V264.448ZM765.121 263.448V294.912H767.121V263.448H765.121ZM693.366 218.388L674.598 167.88L672.723 168.576L691.491 219.084L693.366 218.388ZM673.661 167.228H672.005V169.228H673.661V167.228ZM671.076 167.858L650.928 218.366L652.786 219.107L672.934 168.599L671.076 167.858ZM651.857 219.736H692.429V217.736H651.857V219.736Z" fill="#222629" mask="url(#path-1-outside-1_412_969)"/>
<mask id="path-3-outside-2_412_969" maskUnits="userSpaceOnUse" x="81.5347" y="102.268" width="663" height="188" fill="black">
<rect fill="white" x="81.5347" y="102.268" width="663" height="188"/>
<path d="M268.735 286.268H197.251V254.804H211.603L204.979 236.588H143.983L136.531 254.804H153.367V286.268H82.7112V254.804H98.9952L150.331 138.332H125.491V106.868H187.039L251.623 254.804H268.735V286.268ZM195.043 210.092L176.275 159.584H174.619L154.471 210.092H195.043ZM408.26 231.896C408.26 250.48 402.004 264.648 389.492 274.4C376.98 284.152 359.776 289.028 337.88 289.028C325.736 289.028 313.592 287.464 301.448 284.336C289.488 281.208 280.012 276.516 273.02 270.26L278.54 225.824L308.072 228.584L307.796 250.388C314.052 253.7 319.388 255.724 323.804 256.46C328.22 257.012 331.992 257.288 335.12 257.288C344.872 257.288 352.876 256.092 359.132 253.7C365.388 251.124 368.516 245.328 368.516 236.312C368.516 226.376 364.836 219.752 357.476 216.44C350.116 212.944 341.468 210.276 331.532 208.436C322.884 206.964 314.144 204.848 305.312 202.088C296.664 199.144 289.396 194.452 283.508 188.012C277.62 181.388 274.676 171.636 274.676 158.756C274.676 138.7 281.484 124.624 295.1 116.528C308.716 108.248 323.62 104.108 339.812 104.108C351.588 104.108 362.812 105.948 373.484 109.628C384.156 113.124 392.344 117.908 398.048 123.98L399.704 162.896L370.172 165.656L367.688 144.68C363.088 141.552 358.396 139.436 353.612 138.332C349.012 137.228 344.504 136.676 340.088 136.676C332.728 136.676 326.564 137.964 321.596 140.54C316.812 143.116 314.42 147.624 314.42 154.064C314.42 161.608 317.548 166.852 323.804 169.796C330.06 172.74 337.236 175.132 345.332 176.972C352.692 178.444 361.248 180.56 371 183.32C380.936 185.896 389.584 190.864 396.944 198.224C404.488 205.4 408.26 216.624 408.26 231.896ZM572.38 165.38C572.38 185.804 565.664 201.076 552.232 211.196C538.984 221.132 523.528 226.1 505.864 226.1H478.264V254.804H505.864V286.268H421.96V254.804H441.28V138.332H421.96V106.868H504.208C526.472 106.868 543.4 112.112 554.992 122.6C566.584 133.088 572.38 147.348 572.38 165.38ZM532.636 165.932C532.636 157.1 530.152 150.292 525.184 145.508C520.4 140.724 511.844 138.332 499.516 138.332H478.264V194.912H498.964C511.66 194.912 520.4 192.244 525.184 186.908C530.152 181.572 532.636 174.58 532.636 165.932ZM743.531 286.268H672.047V254.804H686.399L679.775 236.588H618.779L611.327 254.804H628.163V286.268H557.507V254.804H573.791L625.127 138.332H600.287V106.868H661.835L726.419 254.804H743.531V286.268ZM669.839 210.092L651.071 159.584H649.415L629.267 210.092H669.839Z"/>
</mask>
<path d="M268.735 286.268H197.251V254.804H211.603L204.979 236.588H143.983L136.531 254.804H153.367V286.268H82.7112V254.804H98.9952L150.331 138.332H125.491V106.868H187.039L251.623 254.804H268.735V286.268ZM195.043 210.092L176.275 159.584H174.619L154.471 210.092H195.043ZM408.26 231.896C408.26 250.48 402.004 264.648 389.492 274.4C376.98 284.152 359.776 289.028 337.88 289.028C325.736 289.028 313.592 287.464 301.448 284.336C289.488 281.208 280.012 276.516 273.02 270.26L278.54 225.824L308.072 228.584L307.796 250.388C314.052 253.7 319.388 255.724 323.804 256.46C328.22 257.012 331.992 257.288 335.12 257.288C344.872 257.288 352.876 256.092 359.132 253.7C365.388 251.124 368.516 245.328 368.516 236.312C368.516 226.376 364.836 219.752 357.476 216.44C350.116 212.944 341.468 210.276 331.532 208.436C322.884 206.964 314.144 204.848 305.312 202.088C296.664 199.144 289.396 194.452 283.508 188.012C277.62 181.388 274.676 171.636 274.676 158.756C274.676 138.7 281.484 124.624 295.1 116.528C308.716 108.248 323.62 104.108 339.812 104.108C351.588 104.108 362.812 105.948 373.484 109.628C384.156 113.124 392.344 117.908 398.048 123.98L399.704 162.896L370.172 165.656L367.688 144.68C363.088 141.552 358.396 139.436 353.612 138.332C349.012 137.228 344.504 136.676 340.088 136.676C332.728 136.676 326.564 137.964 321.596 140.54C316.812 143.116 314.42 147.624 314.42 154.064C314.42 161.608 317.548 166.852 323.804 169.796C330.06 172.74 337.236 175.132 345.332 176.972C352.692 178.444 361.248 180.56 371 183.32C380.936 185.896 389.584 190.864 396.944 198.224C404.488 205.4 408.26 216.624 408.26 231.896ZM572.38 165.38C572.38 185.804 565.664 201.076 552.232 211.196C538.984 221.132 523.528 226.1 505.864 226.1H478.264V254.804H505.864V286.268H421.96V254.804H441.28V138.332H421.96V106.868H504.208C526.472 106.868 543.4 112.112 554.992 122.6C566.584 133.088 572.38 147.348 572.38 165.38ZM532.636 165.932C532.636 157.1 530.152 150.292 525.184 145.508C520.4 140.724 511.844 138.332 499.516 138.332H478.264V194.912H498.964C511.66 194.912 520.4 192.244 525.184 186.908C530.152 181.572 532.636 174.58 532.636 165.932ZM743.531 286.268H672.047V254.804H686.399L679.775 236.588H618.779L611.327 254.804H628.163V286.268H557.507V254.804H573.791L625.127 138.332H600.287V106.868H661.835L726.419 254.804H743.531V286.268ZM669.839 210.092L651.071 159.584H649.415L629.267 210.092H669.839Z" fill="#AA6F29"/>
<path d="M268.735 286.268V287.268H269.735V286.268H268.735ZM197.251 286.268H196.251V287.268H197.251V286.268ZM197.251 254.804V253.804H196.251V254.804H197.251ZM211.603 254.804V255.804H213.031L212.543 254.462L211.603 254.804ZM204.979 236.588L205.919 236.246L205.68 235.588H204.979V236.588ZM143.983 236.588V235.588H143.312L143.058 236.209L143.983 236.588ZM136.531 254.804L135.606 254.425L135.042 255.804H136.531V254.804ZM153.367 254.804H154.367V253.804H153.367V254.804ZM153.367 286.268V287.268H154.367V286.268H153.367ZM82.7112 286.268H81.7112V287.268H82.7112V286.268ZM82.7112 254.804V253.804H81.7112V254.804H82.7112ZM98.9952 254.804V255.804H99.6472L99.9102 255.207L98.9952 254.804ZM150.331 138.332L151.246 138.735L151.865 137.332H150.331V138.332ZM125.491 138.332H124.491V139.332H125.491V138.332ZM125.491 106.868V105.868H124.491V106.868H125.491ZM187.039 106.868L187.956 106.467L187.694 105.868H187.039V106.868ZM251.623 254.804L250.707 255.204L250.969 255.804H251.623V254.804ZM268.735 254.804H269.735V253.804H268.735V254.804ZM195.043 210.092V211.092H196.482L195.981 209.743L195.043 210.092ZM176.275 159.584L177.213 159.235L176.97 158.584H176.275V159.584ZM174.619 159.584V158.584H173.941L173.69 159.213L174.619 159.584ZM154.471 210.092L153.542 209.721L152.996 211.092H154.471V210.092ZM268.735 285.268H197.251V287.268H268.735V285.268ZM198.251 286.268V254.804H196.251V286.268H198.251ZM197.251 255.804H211.603V253.804H197.251V255.804ZM212.543 254.462L205.919 236.246L204.039 236.929L210.663 255.145L212.543 254.462ZM204.979 235.588H143.983V237.588H204.979V235.588ZM143.058 236.209L135.606 254.425L137.457 255.182L144.909 236.966L143.058 236.209ZM136.531 255.804H153.367V253.804H136.531V255.804ZM152.367 254.804V286.268H154.367V254.804H152.367ZM153.367 285.268H82.7112V287.268H153.367V285.268ZM83.7112 286.268V254.804H81.7112V286.268H83.7112ZM82.7112 255.804H98.9952V253.804H82.7112V255.804ZM99.9102 255.207L151.246 138.735L149.416 137.928L98.0801 254.4L99.9102 255.207ZM150.331 137.332H125.491V139.332H150.331V137.332ZM126.491 138.332V106.868H124.491V138.332H126.491ZM125.491 107.868H187.039V105.868H125.491V107.868ZM186.123 107.268L250.707 255.204L252.54 254.403L187.956 106.467L186.123 107.268ZM251.623 255.804H268.735V253.804H251.623V255.804ZM267.735 254.804V286.268H269.735V254.804H267.735ZM195.981 209.743L177.213 159.235L175.338 159.932L194.106 210.44L195.981 209.743ZM176.275 158.584H174.619V160.584H176.275V158.584ZM173.69 159.213L153.542 209.721L155.4 210.462L175.548 159.954L173.69 159.213ZM154.471 211.092H195.043V209.092H154.471V211.092ZM389.492 274.4L390.106 275.188L389.492 274.4ZM301.448 284.336L301.195 285.303L301.198 285.304L301.448 284.336ZM273.02 270.26L272.027 270.136L271.963 270.656L272.353 271.005L273.02 270.26ZM278.54 225.824L278.633 224.828L277.667 224.738L277.547 225.7L278.54 225.824ZM308.072 228.584L309.072 228.596L309.083 227.674L308.165 227.588L308.072 228.584ZM307.796 250.388L306.796 250.375L306.788 250.986L307.328 251.271L307.796 250.388ZM323.804 256.46L323.639 257.446L323.659 257.449L323.68 257.452L323.804 256.46ZM359.132 253.7L359.489 254.634L359.501 254.629L359.512 254.624L359.132 253.7ZM357.476 216.44L357.047 217.343L357.056 217.347L357.065 217.352L357.476 216.44ZM331.532 208.436L331.714 207.452L331.707 207.451L331.699 207.45L331.532 208.436ZM305.312 202.088L304.989 203.034L305.001 203.038L305.013 203.042L305.312 202.088ZM283.508 188.012L282.76 188.676L282.77 188.686L283.508 188.012ZM295.1 116.528L295.611 117.387L295.619 117.382L295.1 116.528ZM373.484 109.628L373.158 110.573L373.165 110.575L373.172 110.578L373.484 109.628ZM398.048 123.98L399.047 123.937L399.031 123.566L398.776 123.295L398.048 123.98ZM399.704 162.896L399.797 163.891L400.743 163.803L400.703 162.853L399.704 162.896ZM370.172 165.656L369.179 165.773L369.293 166.742L370.265 166.651L370.172 165.656ZM367.688 144.68L368.681 144.562L368.627 144.109L368.25 143.853L367.688 144.68ZM353.612 138.332L353.378 139.304L353.387 139.306L353.612 138.332ZM321.596 140.54L321.135 139.652L321.128 139.655L321.122 139.659L321.596 140.54ZM323.804 169.796L324.229 168.891L323.804 169.796ZM345.332 176.972L345.11 177.947L345.123 177.95L345.136 177.952L345.332 176.972ZM371 183.32L370.727 184.282L370.738 184.285L370.749 184.288L371 183.32ZM396.944 198.224L396.237 198.931L396.245 198.94L396.254 198.948L396.944 198.224ZM407.26 231.896C407.26 250.231 401.102 264.082 388.877 273.611L390.106 275.188C402.905 265.213 409.26 250.728 409.26 231.896H407.26ZM388.877 273.611C376.597 283.182 359.636 288.028 337.88 288.028V290.028C359.915 290.028 377.363 285.121 390.106 275.188L388.877 273.611ZM337.88 288.028C325.822 288.028 313.762 286.475 301.697 283.367L301.198 285.304C313.421 288.452 325.649 290.028 337.88 290.028V288.028ZM301.701 283.368C289.847 280.268 280.529 275.636 273.686 269.514L272.353 271.005C279.495 277.395 289.128 282.147 301.195 285.303L301.701 283.368ZM274.012 270.383L279.532 225.947L277.547 225.7L272.027 270.136L274.012 270.383ZM278.447 226.819L307.979 229.579L308.165 227.588L278.633 224.828L278.447 226.819ZM307.072 228.571L306.796 250.375L308.796 250.4L309.072 228.596L307.072 228.571ZM307.328 251.271C313.63 254.608 319.074 256.685 323.639 257.446L323.968 255.473C319.701 254.762 314.473 252.791 308.264 249.504L307.328 251.271ZM323.68 257.452C328.121 258.007 331.937 258.288 335.12 258.288V256.288C332.046 256.288 328.318 256.016 323.928 255.467L323.68 257.452ZM335.12 258.288C344.943 258.288 353.079 257.084 359.489 254.634L358.775 252.766C352.672 255.099 344.8 256.288 335.12 256.288V258.288ZM359.512 254.624C362.847 253.251 365.373 251.002 367.05 247.896C368.716 244.808 369.516 240.927 369.516 236.312H367.516C367.516 240.712 366.751 244.237 365.29 246.946C363.838 249.635 361.672 251.572 358.751 252.775L359.512 254.624ZM369.516 236.312C369.516 231.225 368.574 226.906 366.63 223.406C364.678 219.893 361.749 217.266 357.886 215.528L357.065 217.352C360.562 218.925 363.153 221.266 364.881 224.377C366.617 227.501 367.516 231.462 367.516 236.312H369.516ZM357.905 215.536C350.45 211.995 341.716 209.304 331.714 207.452L331.35 209.419C341.22 211.247 349.781 213.892 357.047 217.343L357.905 215.536ZM331.699 207.45C323.098 205.986 314.401 203.88 305.61 201.133L305.013 203.042C313.886 205.815 322.669 207.941 331.364 209.421L331.699 207.45ZM305.634 201.141C297.137 198.249 290.015 193.647 284.246 187.337L282.77 188.686C288.777 195.256 296.19 200.039 304.989 203.034L305.634 201.141ZM284.255 187.347C278.59 180.974 275.676 171.5 275.676 158.756H273.676C273.676 171.771 276.649 181.801 282.76 188.676L284.255 187.347ZM275.676 158.756C275.676 138.944 282.381 125.254 295.611 117.387L294.589 115.668C280.587 123.993 273.676 138.455 273.676 158.756H275.676ZM295.619 117.382C309.076 109.199 323.8 105.108 339.812 105.108V103.108C323.439 103.108 308.355 107.296 294.58 115.673L295.619 117.382ZM339.812 105.108C351.482 105.108 362.595 106.931 373.158 110.573L373.81 108.682C363.028 104.964 351.694 103.108 339.812 103.108V105.108ZM373.172 110.578C383.738 114.039 391.763 118.749 397.319 124.664L398.776 123.295C392.925 117.066 384.573 112.208 373.795 108.677L373.172 110.578ZM397.049 124.022L398.705 162.938L400.703 162.853L399.047 123.937L397.049 124.022ZM399.611 161.9L370.079 164.66L370.265 166.651L399.797 163.891L399.611 161.9ZM371.165 165.538L368.681 144.562L366.695 144.797L369.179 165.773L371.165 165.538ZM368.25 143.853C363.561 140.664 358.756 138.492 353.836 137.357L353.387 139.306C358.035 140.379 362.614 142.439 367.125 145.507L368.25 143.853ZM353.845 137.359C349.174 136.238 344.588 135.676 340.088 135.676V137.676C344.42 137.676 348.849 138.217 353.378 139.304L353.845 137.359ZM340.088 135.676C332.616 135.676 326.283 136.983 321.135 139.652L322.056 141.427C326.844 138.945 332.839 137.676 340.088 137.676V135.676ZM321.122 139.659C315.947 142.445 313.42 147.338 313.42 154.064H315.42C315.42 147.91 317.676 143.786 322.07 141.42L321.122 139.659ZM313.42 154.064C313.42 157.974 314.231 161.357 315.907 164.167C317.586 166.982 320.094 169.155 323.378 170.7L324.229 168.891C321.257 167.492 319.073 165.571 317.624 163.142C316.172 160.708 315.42 157.697 315.42 154.064H313.42ZM323.378 170.7C329.711 173.681 336.957 176.094 345.11 177.947L345.553 175.996C337.514 174.169 330.409 171.799 324.229 168.891L323.378 170.7ZM345.136 177.952C352.463 179.418 360.992 181.527 370.727 184.282L371.272 182.357C361.503 179.593 352.92 177.47 345.528 175.991L345.136 177.952ZM370.749 184.288C380.51 186.818 389.001 191.695 396.237 198.931L397.651 197.516C390.167 190.032 381.362 184.973 371.251 182.352L370.749 184.288ZM396.254 198.948C403.523 205.862 407.26 216.769 407.26 231.896H409.26C409.26 216.478 405.452 204.937 397.633 197.499L396.254 198.948ZM552.232 211.196L552.832 211.996L552.834 211.994L552.232 211.196ZM478.264 226.1V225.1H477.264V226.1H478.264ZM478.264 254.804H477.264V255.804H478.264V254.804ZM505.864 254.804H506.864V253.804H505.864V254.804ZM505.864 286.268V287.268H506.864V286.268H505.864ZM421.96 286.268H420.96V287.268H421.96V286.268ZM421.96 254.804V253.804H420.96V254.804H421.96ZM441.28 254.804V255.804H442.28V254.804H441.28ZM441.28 138.332H442.28V137.332H441.28V138.332ZM421.96 138.332H420.96V139.332H421.96V138.332ZM421.96 106.868V105.868H420.96V106.868H421.96ZM554.992 122.6L555.663 121.858L554.992 122.6ZM525.184 145.508L524.477 146.215L524.484 146.221L524.491 146.228L525.184 145.508ZM478.264 138.332V137.332H477.264V138.332H478.264ZM478.264 194.912H477.264V195.912H478.264V194.912ZM525.184 186.908L524.453 186.226L524.446 186.233L524.44 186.24L525.184 186.908ZM571.38 165.38C571.38 185.565 564.757 200.507 551.631 210.397L552.834 211.994C566.572 201.644 573.38 186.042 573.38 165.38H571.38ZM551.632 210.396C538.569 220.193 523.327 225.1 505.864 225.1V227.1C523.729 227.1 539.399 222.07 552.832 211.996L551.632 210.396ZM505.864 225.1H478.264V227.1H505.864V225.1ZM477.264 226.1V254.804H479.264V226.1H477.264ZM478.264 255.804H505.864V253.804H478.264V255.804ZM504.864 254.804V286.268H506.864V254.804H504.864ZM505.864 285.268H421.96V287.268H505.864V285.268ZM422.96 286.268V254.804H420.96V286.268H422.96ZM421.96 255.804H441.28V253.804H421.96V255.804ZM442.28 254.804V138.332H440.28V254.804H442.28ZM441.28 137.332H421.96V139.332H441.28V137.332ZM422.96 138.332V106.868H420.96V138.332H422.96ZM421.96 107.868H504.208V105.868H421.96V107.868ZM504.208 107.868C526.329 107.868 542.978 113.078 554.322 123.341L555.663 121.858C543.822 111.145 526.616 105.868 504.208 105.868V107.868ZM554.322 123.341C565.671 133.61 571.38 147.582 571.38 165.38H573.38C573.38 147.113 567.498 132.565 555.663 121.858L554.322 123.341ZM533.636 165.932C533.636 156.908 531.093 149.809 525.878 144.787L524.491 146.228C529.212 150.774 531.636 157.291 531.636 165.932H533.636ZM525.892 144.8C520.815 139.724 511.912 137.332 499.516 137.332V139.332C511.777 139.332 519.985 141.723 524.477 146.215L525.892 144.8ZM499.516 137.332H478.264V139.332H499.516V137.332ZM477.264 138.332V194.912H479.264V138.332H477.264ZM478.264 195.912H498.964V193.912H478.264V195.912ZM498.964 195.912C511.74 195.912 520.852 193.238 525.929 187.575L524.44 186.24C519.949 191.249 511.581 193.912 498.964 193.912V195.912ZM525.916 187.589C531.088 182.034 533.636 174.782 533.636 165.932H531.636C531.636 174.377 529.217 181.109 524.453 186.226L525.916 187.589ZM743.531 286.268V287.268H744.531V286.268H743.531ZM672.047 286.268H671.047V287.268H672.047V286.268ZM672.047 254.804V253.804H671.047V254.804H672.047ZM686.399 254.804V255.804H687.826L687.338 254.462L686.399 254.804ZM679.775 236.588L680.714 236.246L680.475 235.588H679.775V236.588ZM618.779 236.588V235.588H618.107L617.853 236.209L618.779 236.588ZM611.327 254.804L610.401 254.425L609.837 255.804H611.327V254.804ZM628.163 254.804H629.163V253.804H628.163V254.804ZM628.163 286.268V287.268H629.163V286.268H628.163ZM557.507 286.268H556.507V287.268H557.507V286.268ZM557.507 254.804V253.804H556.507V254.804H557.507ZM573.791 254.804V255.804H574.443L574.706 255.207L573.791 254.804ZM625.127 138.332L626.042 138.735L626.66 137.332H625.127V138.332ZM600.287 138.332H599.287V139.332H600.287V138.332ZM600.287 106.868V105.868H599.287V106.868H600.287ZM661.835 106.868L662.751 106.467L662.489 105.868H661.835V106.868ZM726.419 254.804L725.502 255.204L725.764 255.804H726.419V254.804ZM743.531 254.804H744.531V253.804H743.531V254.804ZM669.839 210.092V211.092H671.277L670.776 209.743L669.839 210.092ZM651.071 159.584L652.008 159.235L651.766 158.584H651.071V159.584ZM649.415 159.584V158.584H648.737L648.486 159.213L649.415 159.584ZM629.267 210.092L628.338 209.721L627.791 211.092H629.267V210.092ZM743.531 285.268H672.047V287.268H743.531V285.268ZM673.047 286.268V254.804H671.047V286.268H673.047ZM672.047 255.804H686.399V253.804H672.047V255.804ZM687.338 254.462L680.714 236.246L678.835 236.929L685.459 255.145L687.338 254.462ZM679.775 235.588H618.779V237.588H679.775V235.588ZM617.853 236.209L610.401 254.425L612.252 255.182L619.704 236.966L617.853 236.209ZM611.327 255.804H628.163V253.804H611.327V255.804ZM627.163 254.804V286.268H629.163V254.804H627.163ZM628.163 285.268H557.507V287.268H628.163V285.268ZM558.507 286.268V254.804H556.507V286.268H558.507ZM557.507 255.804H573.791V253.804H557.507V255.804ZM574.706 255.207L626.042 138.735L624.212 137.928L572.876 254.4L574.706 255.207ZM625.127 137.332H600.287V139.332H625.127V137.332ZM601.287 138.332V106.868H599.287V138.332H601.287ZM600.287 107.868H661.835V105.868H600.287V107.868ZM660.918 107.268L725.502 255.204L727.335 254.403L662.751 106.467L660.918 107.268ZM726.419 255.804H743.531V253.804H726.419V255.804ZM742.531 254.804V286.268H744.531V254.804H742.531ZM670.776 209.743L652.008 159.235L650.133 159.932L668.901 210.44L670.776 209.743ZM651.071 158.584H649.415V160.584H651.071V158.584ZM648.486 159.213L628.338 209.721L630.195 210.462L650.343 159.954L648.486 159.213ZM629.267 211.092H669.839V209.092H629.267V211.092Z" fill="#222629" mask="url(#path-3-outside-2_412_969)"/>
<mask id="path-5-outside-3_412_969" maskUnits="userSpaceOnUse" x="59.886" y="94.2881" width="663" height="188" fill="black">
<rect fill="white" x="59.886" y="94.2881" width="663" height="188"/>
<path d="M247.086 278.288H175.602V246.824H189.954L183.33 228.608H122.334L114.882 246.824H131.718V278.288H61.0625V246.824H77.3465L128.682 130.352H103.842V98.8881H165.39L229.974 246.824H247.086V278.288ZM173.394 202.112L154.626 151.604H152.97L132.822 202.112H173.394ZM386.611 223.916C386.611 242.5 380.355 256.668 367.843 266.42C355.331 276.172 338.127 281.048 316.231 281.048C304.087 281.048 291.943 279.484 279.799 276.356C267.839 273.228 258.363 268.536 251.371 262.28L256.891 217.844L286.423 220.604L286.147 242.408C292.403 245.72 297.739 247.744 302.155 248.48C306.571 249.032 310.343 249.308 313.471 249.308C323.223 249.308 331.227 248.112 337.483 245.72C343.739 243.144 346.867 237.348 346.867 228.332C346.867 218.396 343.187 211.772 335.827 208.46C328.467 204.964 319.819 202.296 309.883 200.456C301.235 198.984 292.495 196.868 283.663 194.108C275.015 191.164 267.747 186.472 261.859 180.032C255.971 173.408 253.027 163.656 253.027 150.776C253.027 130.72 259.835 116.644 273.451 108.548C287.067 100.268 301.971 96.1281 318.163 96.1281C329.939 96.1281 341.163 97.9681 351.835 101.648C362.507 105.144 370.695 109.928 376.399 116L378.055 154.916L348.523 157.676L346.039 136.7C341.439 133.572 336.747 131.456 331.963 130.352C327.363 129.248 322.855 128.696 318.439 128.696C311.079 128.696 304.915 129.984 299.947 132.56C295.163 135.136 292.771 139.644 292.771 146.084C292.771 153.628 295.899 158.872 302.155 161.816C308.411 164.76 315.587 167.152 323.683 168.992C331.043 170.464 339.599 172.58 349.351 175.34C359.287 177.916 367.935 182.884 375.295 190.244C382.839 197.42 386.611 208.644 386.611 223.916ZM550.732 157.4C550.732 177.824 544.016 193.096 530.584 203.216C517.336 213.152 501.88 218.12 484.216 218.12H456.616V246.824H484.216V278.288H400.312V246.824H419.632V130.352H400.312V98.8881H482.56C504.824 98.8881 521.752 104.132 533.344 114.62C544.936 125.108 550.732 139.368 550.732 157.4ZM510.988 157.952C510.988 149.12 508.504 142.312 503.536 137.528C498.752 132.744 490.196 130.352 477.868 130.352H456.616V186.932H477.316C490.012 186.932 498.752 184.264 503.536 178.928C508.504 173.592 510.988 166.6 510.988 157.952ZM721.882 278.288H650.398V246.824H664.75L658.126 228.608H597.13L589.678 246.824H606.514V278.288H535.858V246.824H552.142L603.478 130.352H578.638V98.8881H640.186L704.77 246.824H721.882V278.288ZM648.19 202.112L629.422 151.604H627.766L607.618 202.112H648.19Z"/>
</mask>
<path d="M247.086 278.288H175.602V246.824H189.954L183.33 228.608H122.334L114.882 246.824H131.718V278.288H61.0625V246.824H77.3465L128.682 130.352H103.842V98.8881H165.39L229.974 246.824H247.086V278.288ZM173.394 202.112L154.626 151.604H152.97L132.822 202.112H173.394ZM386.611 223.916C386.611 242.5 380.355 256.668 367.843 266.42C355.331 276.172 338.127 281.048 316.231 281.048C304.087 281.048 291.943 279.484 279.799 276.356C267.839 273.228 258.363 268.536 251.371 262.28L256.891 217.844L286.423 220.604L286.147 242.408C292.403 245.72 297.739 247.744 302.155 248.48C306.571 249.032 310.343 249.308 313.471 249.308C323.223 249.308 331.227 248.112 337.483 245.72C343.739 243.144 346.867 237.348 346.867 228.332C346.867 218.396 343.187 211.772 335.827 208.46C328.467 204.964 319.819 202.296 309.883 200.456C301.235 198.984 292.495 196.868 283.663 194.108C275.015 191.164 267.747 186.472 261.859 180.032C255.971 173.408 253.027 163.656 253.027 150.776C253.027 130.72 259.835 116.644 273.451 108.548C287.067 100.268 301.971 96.1281 318.163 96.1281C329.939 96.1281 341.163 97.9681 351.835 101.648C362.507 105.144 370.695 109.928 376.399 116L378.055 154.916L348.523 157.676L346.039 136.7C341.439 133.572 336.747 131.456 331.963 130.352C327.363 129.248 322.855 128.696 318.439 128.696C311.079 128.696 304.915 129.984 299.947 132.56C295.163 135.136 292.771 139.644 292.771 146.084C292.771 153.628 295.899 158.872 302.155 161.816C308.411 164.76 315.587 167.152 323.683 168.992C331.043 170.464 339.599 172.58 349.351 175.34C359.287 177.916 367.935 182.884 375.295 190.244C382.839 197.42 386.611 208.644 386.611 223.916ZM550.732 157.4C550.732 177.824 544.016 193.096 530.584 203.216C517.336 213.152 501.88 218.12 484.216 218.12H456.616V246.824H484.216V278.288H400.312V246.824H419.632V130.352H400.312V98.8881H482.56C504.824 98.8881 521.752 104.132 533.344 114.62C544.936 125.108 550.732 139.368 550.732 157.4ZM510.988 157.952C510.988 149.12 508.504 142.312 503.536 137.528C498.752 132.744 490.196 130.352 477.868 130.352H456.616V186.932H477.316C490.012 186.932 498.752 184.264 503.536 178.928C508.504 173.592 510.988 166.6 510.988 157.952ZM721.882 278.288H650.398V246.824H664.75L658.126 228.608H597.13L589.678 246.824H606.514V278.288H535.858V246.824H552.142L603.478 130.352H578.638V98.8881H640.186L704.77 246.824H721.882V278.288ZM648.19 202.112L629.422 151.604H627.766L607.618 202.112H648.19Z" fill="#87562A"/>
<path d="M247.087 278.288V279.288H248.087V278.288H247.087ZM175.602 278.288H174.602V279.288H175.602V278.288ZM175.602 246.824V245.824H174.602V246.824H175.602ZM189.954 246.824V247.824H191.382L190.894 246.482L189.954 246.824ZM183.33 228.608L184.27 228.266L184.031 227.608H183.33V228.608ZM122.334 228.608V227.608H121.663L121.409 228.229L122.334 228.608ZM114.882 246.824L113.957 246.445L113.393 247.824H114.882V246.824ZM131.718 246.824H132.718V245.824H131.718V246.824ZM131.718 278.288V279.288H132.718V278.288H131.718ZM61.0625 278.288H60.0625V279.288H61.0625V278.288ZM61.0625 246.824V245.824H60.0625V246.824H61.0625ZM77.3465 246.824V247.824H77.9986L78.2615 247.227L77.3465 246.824ZM128.682 130.352L129.598 130.755L130.216 129.352H128.682V130.352ZM103.842 130.352H102.842V131.352H103.842V130.352ZM103.842 98.8881V97.8881H102.842V98.8881H103.842ZM165.39 98.8881L166.307 98.488L166.045 97.8881H165.39V98.8881ZM229.974 246.824L229.058 247.224L229.32 247.824H229.974V246.824ZM247.087 246.824H248.087V245.824H247.087V246.824ZM173.394 202.112V203.112H174.833L174.332 201.764L173.394 202.112ZM154.626 151.604L155.564 151.256L155.322 150.604H154.626V151.604ZM152.97 151.604V150.604H152.293L152.042 151.234L152.97 151.604ZM132.822 202.112L131.894 201.742L131.347 203.112H132.822V202.112ZM247.087 277.288H175.602V279.288H247.087V277.288ZM176.602 278.288V246.824H174.602V278.288H176.602ZM175.602 247.824H189.954V245.824H175.602V247.824ZM190.894 246.482L184.27 228.266L182.391 228.95L189.015 247.166L190.894 246.482ZM183.33 227.608H122.334V229.608H183.33V227.608ZM121.409 228.229L113.957 246.445L115.808 247.203L123.26 228.987L121.409 228.229ZM114.882 247.824H131.718V245.824H114.882V247.824ZM130.718 246.824V278.288H132.718V246.824H130.718ZM131.718 277.288H61.0625V279.288H131.718V277.288ZM62.0625 278.288V246.824H60.0625V278.288H62.0625ZM61.0625 247.824H77.3465V245.824H61.0625V247.824ZM78.2615 247.227L129.598 130.755L127.767 129.949L76.4314 246.421L78.2615 247.227ZM128.682 129.352H103.842V131.352H128.682V129.352ZM104.842 130.352V98.8881H102.842V130.352H104.842ZM103.842 99.8881H165.39V97.8881H103.842V99.8881ZM164.474 99.2882L229.058 247.224L230.891 246.424L166.307 98.488L164.474 99.2882ZM229.974 247.824H247.087V245.824H229.974V247.824ZM246.087 246.824V278.288H248.087V246.824H246.087ZM174.332 201.764L155.564 151.256L153.689 151.952L172.457 202.46L174.332 201.764ZM154.626 150.604H152.97V152.604H154.626V150.604ZM152.042 151.234L131.894 201.742L133.751 202.483L153.899 151.975L152.042 151.234ZM132.822 203.112H173.394V201.112H132.822V203.112ZM367.843 266.42L368.458 267.209L367.843 266.42ZM279.799 276.356L279.546 277.324L279.55 277.324L279.799 276.356ZM251.371 262.28L250.379 262.157L250.314 262.676L250.704 263.025L251.371 262.28ZM256.891 217.844L256.984 216.848L256.018 216.758L255.899 217.721L256.891 217.844ZM286.423 220.604L287.423 220.617L287.435 219.694L286.516 219.608L286.423 220.604ZM286.147 242.408L285.147 242.395L285.139 243.006L285.679 243.292L286.147 242.408ZM302.155 248.48L301.991 249.466L302.011 249.47L302.031 249.472L302.155 248.48ZM337.483 245.72L337.84 246.654L337.852 246.65L337.864 246.645L337.483 245.72ZM335.827 208.46L335.398 209.363L335.407 209.368L335.417 209.372L335.827 208.46ZM309.883 200.456L310.065 199.473L310.058 199.471L310.051 199.47L309.883 200.456ZM283.663 194.108L283.341 195.055L283.353 195.059L283.365 195.063L283.663 194.108ZM261.859 180.032L261.111 180.697L261.121 180.707L261.859 180.032ZM273.451 108.548L273.962 109.408L273.971 109.403L273.451 108.548ZM351.835 101.648L351.509 102.593L351.516 102.596L351.524 102.598L351.835 101.648ZM376.399 116L377.398 115.958L377.382 115.586L377.128 115.315L376.399 116ZM378.055 154.916L378.148 155.912L379.094 155.823L379.054 154.874L378.055 154.916ZM348.523 157.676L347.53 157.794L347.645 158.763L348.616 158.672L348.523 157.676ZM346.039 136.7L347.032 136.582L346.978 136.13L346.601 135.873L346.039 136.7ZM331.963 130.352L331.73 131.325L331.738 131.326L331.963 130.352ZM299.947 132.56L299.487 131.672L299.48 131.676L299.473 131.68L299.947 132.56ZM302.155 161.816L302.581 160.911L302.155 161.816ZM323.683 168.992L323.461 169.967L323.474 169.97L323.487 169.973L323.683 168.992ZM349.351 175.34L349.079 176.302L349.089 176.305L349.1 176.308L349.351 175.34ZM375.295 190.244L374.588 190.951L374.597 190.96L374.606 190.969L375.295 190.244ZM385.611 223.916C385.611 242.251 379.454 256.103 367.228 265.631L368.458 267.209C381.256 257.234 387.611 242.749 387.611 223.916H385.611ZM367.228 265.631C354.948 275.203 337.988 280.048 316.231 280.048V282.048C338.266 282.048 355.714 277.141 368.458 267.209L367.228 265.631ZM316.231 280.048C304.174 280.048 292.114 278.495 280.048 275.388L279.55 277.324C291.772 280.473 304 282.048 316.231 282.048V280.048ZM280.052 275.389C268.199 272.289 258.88 267.657 252.038 261.535L250.704 263.025C257.846 269.415 267.479 274.168 279.546 277.324L280.052 275.389ZM252.363 262.403L257.883 217.967L255.899 217.721L250.379 262.157L252.363 262.403ZM256.798 218.84L286.33 221.6L286.516 219.608L256.984 216.848L256.798 218.84ZM285.423 220.591L285.147 242.395L287.147 242.421L287.423 220.617L285.423 220.591ZM285.679 243.292C291.982 246.628 297.425 248.706 301.991 249.466L302.319 247.494C298.053 246.783 292.824 244.812 286.615 241.524L285.679 243.292ZM302.031 249.472C306.472 250.028 310.288 250.308 313.471 250.308V248.308C310.398 248.308 306.669 248.037 302.279 247.488L302.031 249.472ZM313.471 250.308C323.294 250.308 331.431 249.105 337.84 246.654L337.126 244.786C331.023 247.119 323.152 248.308 313.471 248.308V250.308ZM337.864 246.645C341.199 245.272 343.724 243.023 345.401 239.916C347.067 236.828 347.867 232.948 347.867 228.332H345.867C345.867 232.733 345.103 236.258 343.641 238.966C342.19 241.655 340.023 243.593 337.102 244.795L337.864 246.645ZM347.867 228.332C347.867 223.245 346.925 218.926 344.981 215.426C343.029 211.913 340.1 209.286 336.237 207.548L335.417 209.372C338.914 210.946 341.504 213.287 343.233 216.398C344.969 219.522 345.867 223.483 345.867 228.332H347.867ZM336.256 207.557C328.801 204.016 320.067 201.325 310.065 199.473L309.701 201.439C319.571 203.267 328.133 205.912 335.398 209.363L336.256 207.557ZM310.051 199.47C301.449 198.006 292.753 195.901 283.961 193.154L283.365 195.063C292.237 197.835 301.021 199.962 309.715 201.442L310.051 199.47ZM283.985 193.161C275.489 190.269 268.366 185.667 262.597 179.357L261.121 180.707C267.128 187.277 274.541 192.059 283.341 195.055L283.985 193.161ZM262.606 179.368C256.941 172.995 254.027 163.52 254.027 150.776H252.027C252.027 163.792 255.001 173.822 261.112 180.696L262.606 179.368ZM254.027 150.776C254.027 130.965 260.732 117.274 273.962 109.408L272.94 107.689C258.938 116.014 252.027 130.476 252.027 150.776H254.027ZM273.971 109.403C287.427 101.219 302.151 97.1281 318.163 97.1281V95.1281C301.791 95.1281 286.707 99.3168 272.931 107.694L273.971 109.403ZM318.163 97.1281C329.833 97.1281 340.946 98.9512 351.509 102.593L352.161 100.703C341.38 96.985 330.045 95.1281 318.163 95.1281V97.1281ZM351.524 102.598C362.09 106.06 370.114 110.77 375.67 116.685L377.128 115.315C371.276 109.086 362.924 104.229 352.146 100.698L351.524 102.598ZM375.4 116.043L377.056 154.959L379.054 154.874L377.398 115.958L375.4 116.043ZM377.962 153.92L348.43 156.68L348.616 158.672L378.148 155.912L377.962 153.92ZM349.516 157.558L347.032 136.582L345.046 136.818L347.53 157.794L349.516 157.558ZM346.601 135.873C341.912 132.685 337.107 130.513 332.188 129.378L331.738 131.326C336.387 132.399 340.966 134.459 345.477 137.527L346.601 135.873ZM332.196 129.38C327.525 128.259 322.939 127.696 318.439 127.696V129.696C322.771 129.696 327.201 130.238 331.73 131.324L332.196 129.38ZM318.439 127.696C310.967 127.696 304.635 129.003 299.487 131.672L300.407 133.448C305.195 130.965 311.191 129.696 318.439 129.696V127.696ZM299.473 131.68C294.299 134.466 291.771 139.358 291.771 146.084H293.771C293.771 139.93 296.027 135.806 300.421 133.441L299.473 131.68ZM291.771 146.084C291.771 149.994 292.582 153.378 294.258 156.187C295.937 159.002 298.446 161.176 301.729 162.721L302.581 160.911C299.608 159.512 297.425 157.592 295.976 155.163C294.524 152.728 293.771 149.718 293.771 146.084H291.771ZM301.729 162.721C308.062 165.701 315.308 168.114 323.461 169.967L323.905 168.017C315.865 166.19 308.76 163.819 302.581 160.911L301.729 162.721ZM323.487 169.973C330.814 171.438 339.344 173.547 349.079 176.302L349.623 174.378C339.854 171.613 331.272 169.49 323.879 168.012L323.487 169.973ZM349.1 176.308C358.861 178.839 367.352 183.715 374.588 190.951L376.002 189.537C368.518 182.053 359.713 176.993 349.602 174.372L349.1 176.308ZM374.606 190.969C381.874 197.883 385.611 208.79 385.611 223.916H387.611C387.611 208.499 383.804 196.958 375.984 189.52L374.606 190.969ZM530.584 203.216L531.184 204.016L531.186 204.015L530.584 203.216ZM456.616 218.12V217.12H455.616V218.12H456.616ZM456.616 246.824H455.616V247.824H456.616V246.824ZM484.216 246.824H485.216V245.824H484.216V246.824ZM484.216 278.288V279.288H485.216V278.288H484.216ZM400.312 278.288H399.312V279.288H400.312V278.288ZM400.312 246.824V245.824H399.312V246.824H400.312ZM419.632 246.824V247.824H420.632V246.824H419.632ZM419.632 130.352H420.632V129.352H419.632V130.352ZM400.312 130.352H399.312V131.352H400.312V130.352ZM400.312 98.8881V97.8881H399.312V98.8881H400.312ZM533.344 114.62L534.015 113.879L533.344 114.62ZM503.536 137.528L502.829 138.235L502.835 138.242L502.842 138.248L503.536 137.528ZM456.616 130.352V129.352H455.616V130.352H456.616ZM456.616 186.932H455.616V187.932H456.616V186.932ZM503.536 178.928L502.804 178.247L502.797 178.254L502.791 178.261L503.536 178.928ZM549.732 157.4C549.732 177.585 543.109 192.527 529.982 202.417L531.186 204.015C544.923 193.665 551.732 178.063 551.732 157.4H549.732ZM529.984 202.416C516.921 212.213 501.679 217.12 484.216 217.12V219.12C502.081 219.12 517.751 214.091 531.184 204.016L529.984 202.416ZM484.216 217.12H456.616V219.12H484.216V217.12ZM455.616 218.12V246.824H457.616V218.12H455.616ZM456.616 247.824H484.216V245.824H456.616V247.824ZM483.216 246.824V278.288H485.216V246.824H483.216ZM484.216 277.288H400.312V279.288H484.216V277.288ZM401.312 278.288V246.824H399.312V278.288H401.312ZM400.312 247.824H419.632V245.824H400.312V247.824ZM420.632 246.824V130.352H418.632V246.824H420.632ZM419.632 129.352H400.312V131.352H419.632V129.352ZM401.312 130.352V98.8881H399.312V130.352H401.312ZM400.312 99.8881H482.56V97.8881H400.312V99.8881ZM482.56 99.8881C504.68 99.8881 521.33 105.099 532.673 115.362L534.015 113.879C522.174 103.165 504.967 97.8881 482.56 97.8881V99.8881ZM532.673 115.362C544.022 125.63 549.732 139.603 549.732 157.4H551.732C551.732 139.133 545.849 124.586 534.015 113.879L532.673 115.362ZM511.988 157.952C511.988 148.929 509.444 141.83 504.229 136.808L502.842 138.248C507.563 142.795 509.988 149.311 509.988 157.952H511.988ZM504.243 136.821C499.167 131.745 490.263 129.352 477.868 129.352V131.352C490.129 131.352 498.337 133.743 502.829 138.235L504.243 136.821ZM477.868 129.352H456.616V131.352H477.868V129.352ZM455.616 130.352V186.932H457.616V130.352H455.616ZM456.616 187.932H477.316V185.932H456.616V187.932ZM477.316 187.932C490.091 187.932 499.203 185.259 504.28 179.596L502.791 178.261C498.3 183.269 489.933 185.932 477.316 185.932V187.932ZM504.268 179.609C509.439 174.055 511.988 166.803 511.988 157.952H509.988C509.988 166.397 507.568 173.129 502.804 178.247L504.268 179.609ZM721.882 278.288V279.288H722.882V278.288H721.882ZM650.398 278.288H649.398V279.288H650.398V278.288ZM650.398 246.824V245.824H649.398V246.824H650.398ZM664.75 246.824V247.824H666.178L665.69 246.482L664.75 246.824ZM658.126 228.608L659.066 228.266L658.826 227.608H658.126V228.608ZM597.13 228.608V227.608H596.459L596.204 228.229L597.13 228.608ZM589.678 246.824L588.752 246.445L588.188 247.824H589.678V246.824ZM606.514 246.824H607.514V245.824H606.514V246.824ZM606.514 278.288V279.288H607.514V278.288H606.514ZM535.858 278.288H534.858V279.288H535.858V278.288ZM535.858 246.824V245.824H534.858V246.824H535.858ZM552.142 246.824V247.824H552.794L553.057 247.227L552.142 246.824ZM603.478 130.352L604.393 130.755L605.012 129.352H603.478V130.352ZM578.638 130.352H577.638V131.352H578.638V130.352ZM578.638 98.8881V97.8881H577.638V98.8881H578.638ZM640.186 98.8881L641.102 98.488L640.841 97.8881H640.186V98.8881ZM704.77 246.824L703.854 247.224L704.115 247.824H704.77V246.824ZM721.882 246.824H722.882V245.824H721.882V246.824ZM648.19 202.112V203.112H649.628L649.127 201.764L648.19 202.112ZM629.422 151.604L630.359 151.256L630.117 150.604H629.422V151.604ZM627.766 151.604V150.604H627.088L626.837 151.234L627.766 151.604ZM607.618 202.112L606.689 201.742L606.142 203.112H607.618V202.112ZM721.882 277.288H650.398V279.288H721.882V277.288ZM651.398 278.288V246.824H649.398V278.288H651.398ZM650.398 247.824H664.75V245.824H650.398V247.824ZM665.69 246.482L659.066 228.266L657.186 228.95L663.81 247.166L665.69 246.482ZM658.126 227.608H597.13V229.608H658.126V227.608ZM596.204 228.229L588.752 246.445L590.604 247.203L598.055 228.987L596.204 228.229ZM589.678 247.824H606.514V245.824H589.678V247.824ZM605.514 246.824V278.288H607.514V246.824H605.514ZM606.514 277.288H535.858V279.288H606.514V277.288ZM536.858 278.288V246.824H534.858V278.288H536.858ZM535.858 247.824H552.142V245.824H535.858V247.824ZM553.057 247.227L604.393 130.755L602.563 129.949L551.227 246.421L553.057 247.227ZM603.478 129.352H578.638V131.352H603.478V129.352ZM579.638 130.352V98.8881H577.638V130.352H579.638ZM578.638 99.8881H640.186V97.8881H578.638V99.8881ZM639.269 99.2882L703.854 247.224L705.686 246.424L641.102 98.488L639.269 99.2882ZM704.77 247.824H721.882V245.824H704.77V247.824ZM720.882 246.824V278.288H722.882V246.824H720.882ZM649.127 201.764L630.359 151.256L628.485 151.952L647.253 202.46L649.127 201.764ZM629.422 150.604H627.766V152.604H629.422V150.604ZM626.837 151.234L606.689 201.742L608.547 202.483L628.695 151.975L626.837 151.234ZM607.618 203.112H648.19V201.112H607.618V203.112Z" fill="#222629" mask="url(#path-5-outside-3_412_969)"/>
<mask id="path-7-outside-4_412_969" maskUnits="userSpaceOnUse" x="35.6487" y="86.6494" width="663" height="188" fill="black">
<rect fill="white" x="35.6487" y="86.6494" width="663" height="188"/>
<path d="M222.849 270.649H151.365V239.185H165.717L159.093 220.969H98.0972L90.6452 239.185H107.481V270.649H36.8252V239.185H53.1092L104.445 122.713H79.6052V91.2494H141.153L205.737 239.185H222.849V270.649ZM149.157 194.473L130.389 143.965H128.733L108.585 194.473H149.157ZM362.374 216.277C362.374 234.861 356.118 249.029 343.606 258.781C331.094 268.533 313.89 273.409 291.994 273.409C279.85 273.409 267.706 271.845 255.562 268.717C243.602 265.589 234.126 260.897 227.134 254.641L232.654 210.205L262.186 212.965L261.91 234.769C268.166 238.081 273.502 240.105 277.918 240.841C282.334 241.393 286.106 241.669 289.234 241.669C298.986 241.669 306.99 240.473 313.246 238.081C319.502 235.505 322.63 229.709 322.63 220.693C322.63 210.757 318.95 204.133 311.59 200.821C304.23 197.325 295.582 194.657 285.646 192.817C276.998 191.345 268.258 189.229 259.426 186.469C250.778 183.525 243.51 178.833 237.622 172.393C231.734 165.769 228.79 156.017 228.79 143.137C228.79 123.081 235.598 109.005 249.214 100.909C262.83 92.6294 277.734 88.4894 293.926 88.4894C305.702 88.4894 316.926 90.3294 327.598 94.0094C338.27 97.5054 346.458 102.289 352.162 108.361L353.818 147.277L324.286 150.037L321.802 129.061C317.202 125.933 312.51 123.817 307.726 122.713C303.126 121.609 298.618 121.057 294.202 121.057C286.842 121.057 280.678 122.345 275.71 124.921C270.926 127.497 268.534 132.005 268.534 138.445C268.534 145.989 271.662 151.233 277.918 154.177C284.174 157.121 291.35 159.513 299.446 161.353C306.806 162.825 315.362 164.941 325.114 167.701C335.05 170.277 343.698 175.245 351.058 182.605C358.602 189.781 362.374 201.005 362.374 216.277ZM526.494 149.761C526.494 170.185 519.778 185.457 506.346 195.577C493.098 205.513 477.642 210.481 459.978 210.481H432.378V239.185H459.978V270.649H376.074V239.185H395.394V122.713H376.074V91.2494H458.322C480.586 91.2494 497.514 96.4934 509.106 106.981C520.698 117.469 526.494 131.729 526.494 149.761ZM486.75 150.313C486.75 141.481 484.266 134.673 479.298 129.889C474.514 125.105 465.958 122.713 453.63 122.713H432.378V179.293H453.078C465.774 179.293 474.514 176.625 479.298 171.289C484.266 165.953 486.75 158.961 486.75 150.313ZM697.645 270.649H626.161V239.185H640.513L633.889 220.969H572.893L565.441 239.185H582.277V270.649H511.621V239.185H527.905L579.241 122.713H554.401V91.2494H615.949L680.533 239.185H697.645V270.649ZM623.953 194.473L605.185 143.965H603.529L583.381 194.473H623.953Z"/>
</mask>
<path d="M222.849 270.649H151.365V239.185H165.717L159.093 220.969H98.0972L90.6452 239.185H107.481V270.649H36.8252V239.185H53.1092L104.445 122.713H79.6052V91.2494H141.153L205.737 239.185H222.849V270.649ZM149.157 194.473L130.389 143.965H128.733L108.585 194.473H149.157ZM362.374 216.277C362.374 234.861 356.118 249.029 343.606 258.781C331.094 268.533 313.89 273.409 291.994 273.409C279.85 273.409 267.706 271.845 255.562 268.717C243.602 265.589 234.126 260.897 227.134 254.641L232.654 210.205L262.186 212.965L261.91 234.769C268.166 238.081 273.502 240.105 277.918 240.841C282.334 241.393 286.106 241.669 289.234 241.669C298.986 241.669 306.99 240.473 313.246 238.081C319.502 235.505 322.63 229.709 322.63 220.693C322.63 210.757 318.95 204.133 311.59 200.821C304.23 197.325 295.582 194.657 285.646 192.817C276.998 191.345 268.258 189.229 259.426 186.469C250.778 183.525 243.51 178.833 237.622 172.393C231.734 165.769 228.79 156.017 228.79 143.137C228.79 123.081 235.598 109.005 249.214 100.909C262.83 92.6294 277.734 88.4894 293.926 88.4894C305.702 88.4894 316.926 90.3294 327.598 94.0094C338.27 97.5054 346.458 102.289 352.162 108.361L353.818 147.277L324.286 150.037L321.802 129.061C317.202 125.933 312.51 123.817 307.726 122.713C303.126 121.609 298.618 121.057 294.202 121.057C286.842 121.057 280.678 122.345 275.71 124.921C270.926 127.497 268.534 132.005 268.534 138.445C268.534 145.989 271.662 151.233 277.918 154.177C284.174 157.121 291.35 159.513 299.446 161.353C306.806 162.825 315.362 164.941 325.114 167.701C335.05 170.277 343.698 175.245 351.058 182.605C358.602 189.781 362.374 201.005 362.374 216.277ZM526.494 149.761C526.494 170.185 519.778 185.457 506.346 195.577C493.098 205.513 477.642 210.481 459.978 210.481H432.378V239.185H459.978V270.649H376.074V239.185H395.394V122.713H376.074V91.2494H458.322C480.586 91.2494 497.514 96.4934 509.106 106.981C520.698 117.469 526.494 131.729 526.494 149.761ZM486.75 150.313C486.75 141.481 484.266 134.673 479.298 129.889C474.514 125.105 465.958 122.713 453.63 122.713H432.378V179.293H453.078C465.774 179.293 474.514 176.625 479.298 171.289C484.266 165.953 486.75 158.961 486.75 150.313ZM697.645 270.649H626.161V239.185H640.513L633.889 220.969H572.893L565.441 239.185H582.277V270.649H511.621V239.185H527.905L579.241 122.713H554.401V91.2494H615.949L680.533 239.185H697.645V270.649ZM623.953 194.473L605.185 143.965H603.529L583.381 194.473H623.953Z" fill="#222629"/>
<path d="M222.849 270.649V271.649H223.849V270.649H222.849ZM151.365 270.649H150.365V271.649H151.365V270.649ZM151.365 239.185V238.185H150.365V239.185H151.365ZM165.717 239.185V240.185H167.145L166.657 238.844L165.717 239.185ZM159.093 220.969L160.033 220.628L159.794 219.969H159.093V220.969ZM98.0972 220.969V219.969H97.4258L97.1716 220.591L98.0972 220.969ZM90.6452 239.185L89.7196 238.807L89.1557 240.185H90.6452V239.185ZM107.481 239.185H108.481V238.185H107.481V239.185ZM107.481 270.649V271.649H108.481V270.649H107.481ZM36.8252 270.649H35.8252V271.649H36.8252V270.649ZM36.8252 239.185V238.185H35.8252V239.185H36.8252ZM53.1092 239.185V240.185H53.7613L54.0242 239.589L53.1092 239.185ZM104.445 122.713L105.36 123.117L105.979 121.713H104.445V122.713ZM79.6052 122.713H78.6052V123.713H79.6052V122.713ZM79.6052 91.2494V90.2494H78.6052V91.2494H79.6052ZM141.153 91.2494L142.07 90.8493L141.808 90.2494H141.153V91.2494ZM205.737 239.185L204.821 239.586L205.083 240.185H205.737V239.185ZM222.849 239.185H223.849V238.185H222.849V239.185ZM149.157 194.473V195.473H150.596L150.095 194.125L149.157 194.473ZM130.389 143.965L131.327 143.617L131.084 142.965H130.389V143.965ZM128.733 143.965V142.965H128.055L127.804 143.595L128.733 143.965ZM108.585 194.473L107.656 194.103L107.11 195.473H108.585V194.473ZM222.849 269.649H151.365V271.649H222.849V269.649ZM152.365 270.649V239.185H150.365V270.649H152.365ZM151.365 240.185H165.717V238.185H151.365V240.185ZM166.657 238.844L160.033 220.628L158.153 221.311L164.777 239.527L166.657 238.844ZM159.093 219.969H98.0972V221.969H159.093V219.969ZM97.1716 220.591L89.7196 238.807L91.5707 239.564L99.0227 221.348L97.1716 220.591ZM90.6452 240.185H107.481V238.185H90.6452V240.185ZM106.481 239.185V270.649H108.481V239.185H106.481ZM107.481 269.649H36.8252V271.649H107.481V269.649ZM37.8252 270.649V239.185H35.8252V270.649H37.8252ZM36.8252 240.185H53.1092V238.185H36.8252V240.185ZM54.0242 239.589L105.36 123.117L103.53 122.31L52.1941 238.782L54.0242 239.589ZM104.445 121.713H79.6052V123.713H104.445V121.713ZM80.6052 122.713V91.2494H78.6052V122.713H80.6052ZM79.6052 92.2494H141.153V90.2494H79.6052V92.2494ZM140.237 91.6495L204.821 239.586L206.654 238.785L142.07 90.8493L140.237 91.6495ZM205.737 240.185H222.849V238.185H205.737V240.185ZM221.849 239.185V270.649H223.849V239.185H221.849ZM150.095 194.125L131.327 143.617L129.452 144.314L148.22 194.822L150.095 194.125ZM130.389 142.965H128.733V144.965H130.389V142.965ZM127.804 143.595L107.656 194.103L109.514 194.844L129.662 144.336L127.804 143.595ZM108.585 195.473H149.157V193.473H108.585V195.473ZM343.606 258.781L344.22 259.57L343.606 258.781ZM255.562 268.717L255.309 269.685L255.312 269.686L255.562 268.717ZM227.134 254.641L226.141 254.518L226.077 255.038L226.467 255.387L227.134 254.641ZM232.654 210.205L232.747 209.21L231.781 209.119L231.661 210.082L232.654 210.205ZM262.186 212.965L263.186 212.978L263.197 212.056L262.279 211.97L262.186 212.965ZM261.91 234.769L260.91 234.757L260.902 235.367L261.442 235.653L261.91 234.769ZM277.918 240.841L277.753 241.828L277.773 241.831L277.794 241.834L277.918 240.841ZM313.246 238.081L313.603 239.015L313.615 239.011L313.626 239.006L313.246 238.081ZM311.59 200.821L311.161 201.725L311.17 201.729L311.179 201.733L311.59 200.821ZM285.646 192.817L285.828 191.834L285.821 191.833L285.813 191.832L285.646 192.817ZM259.426 186.469L259.103 187.416L259.115 187.42L259.127 187.424L259.426 186.469ZM237.622 172.393L236.874 173.058L236.884 173.068L237.622 172.393ZM249.214 100.909L249.725 101.769L249.733 101.764L249.214 100.909ZM327.598 94.0094L327.272 94.9548L327.279 94.9573L327.286 94.9597L327.598 94.0094ZM352.162 108.361L353.161 108.319L353.145 107.948L352.891 107.677L352.162 108.361ZM353.818 147.277L353.911 148.273L354.857 148.185L354.817 147.235L353.818 147.277ZM324.286 150.037L323.293 150.155L323.407 151.124L324.379 151.033L324.286 150.037ZM321.802 129.061L322.795 128.944L322.741 128.491L322.364 128.234L321.802 129.061ZM307.726 122.713L307.492 123.686L307.501 123.688L307.726 122.713ZM275.71 124.921L275.249 124.034L275.242 124.037L275.236 124.041L275.71 124.921ZM277.918 154.177L278.343 153.273L277.918 154.177ZM299.446 161.353L299.224 162.329L299.237 162.331L299.25 162.334L299.446 161.353ZM325.114 167.701L324.841 168.664L324.852 168.667L324.863 168.669L325.114 167.701ZM351.058 182.605L350.351 183.313L350.359 183.321L350.368 183.33L351.058 182.605ZM361.374 216.277C361.374 234.613 355.216 248.464 342.991 257.993L344.22 259.57C357.019 249.595 363.374 235.11 363.374 216.277H361.374ZM342.991 257.993C330.711 267.564 313.75 272.409 291.994 272.409V274.409C314.029 274.409 331.477 269.503 344.22 259.57L342.991 257.993ZM291.994 272.409C279.937 272.409 267.876 270.857 255.811 267.749L255.312 269.686C267.535 272.834 279.763 274.409 291.994 274.409V272.409ZM255.815 267.75C243.961 264.65 234.643 260.018 227.8 253.896L226.467 255.387C233.609 261.777 243.242 266.529 255.309 269.685L255.815 267.75ZM228.126 254.765L233.646 210.329L231.661 210.082L226.141 254.518L228.126 254.765ZM232.561 211.201L262.093 213.961L262.279 211.97L232.747 209.21L232.561 211.201ZM261.186 212.953L260.91 234.757L262.91 234.782L263.186 212.978L261.186 212.953ZM261.442 235.653C267.744 238.99 273.188 241.067 277.753 241.828L278.082 239.855C273.815 239.144 268.587 237.173 262.378 233.886L261.442 235.653ZM277.794 241.834C282.235 242.389 286.051 242.669 289.234 242.669V240.669C286.16 240.669 282.432 240.398 278.042 239.849L277.794 241.834ZM289.234 242.669C299.057 242.669 307.193 241.466 313.603 239.015L312.889 237.147C306.786 239.481 298.914 240.669 289.234 240.669V242.669ZM313.626 239.006C316.961 237.633 319.487 235.384 321.164 232.277C322.83 229.19 323.63 225.309 323.63 220.693H321.63C321.63 225.094 320.865 228.619 319.404 231.327C317.952 234.017 315.786 235.954 312.865 237.157L313.626 239.006ZM323.63 220.693C323.63 215.607 322.688 211.287 320.744 207.788C318.792 204.275 315.863 201.648 312 199.909L311.179 201.733C314.676 203.307 317.267 205.648 318.995 208.759C320.731 211.883 321.63 215.844 321.63 220.693H323.63ZM312.019 199.918C304.564 196.377 295.83 193.686 285.828 191.834L285.464 193.801C295.334 195.628 303.895 198.274 311.161 201.725L312.019 199.918ZM285.813 191.832C277.212 190.367 268.516 188.262 259.724 185.515L259.127 187.424C268 190.197 276.783 192.323 285.478 193.803L285.813 191.832ZM259.748 185.523C251.251 182.63 244.129 178.029 238.36 171.719L236.884 173.068C242.891 179.638 250.304 184.42 259.103 187.416L259.748 185.523ZM238.369 171.729C232.704 165.356 229.79 155.882 229.79 143.137H227.79C227.79 156.153 230.763 166.183 236.874 173.058L238.369 171.729ZM229.79 143.137C229.79 123.326 236.495 109.636 249.725 101.769L248.703 100.05C234.701 108.375 227.79 122.837 227.79 143.137H229.79ZM249.733 101.764C263.19 93.5807 277.914 89.4894 293.926 89.4894V87.4894C277.553 87.4894 262.469 91.6782 248.694 100.055L249.733 101.764ZM293.926 89.4894C305.596 89.4894 316.709 91.3125 327.272 94.9548L327.924 93.064C317.142 89.3463 305.808 87.4894 293.926 87.4894V89.4894ZM327.286 94.9597C337.852 98.421 345.877 103.131 351.433 109.046L352.891 107.677C347.039 101.447 338.687 96.5899 327.909 93.0591L327.286 94.9597ZM351.163 108.404L352.819 147.32L354.817 147.235L353.161 108.319L351.163 108.404ZM353.725 146.282L324.193 149.042L324.379 151.033L353.911 148.273L353.725 146.282ZM325.279 149.92L322.795 128.944L320.809 129.179L323.293 150.155L325.279 149.92ZM322.364 128.234C317.675 125.046 312.87 122.874 307.951 121.739L307.501 123.688C312.149 124.761 316.728 126.821 321.239 129.888L322.364 128.234ZM307.959 121.741C303.288 120.62 298.702 120.057 294.202 120.057V122.057C298.534 122.057 302.963 122.599 307.492 123.686L307.959 121.741ZM294.202 120.057C286.73 120.057 280.397 121.364 275.249 124.034L276.17 125.809C280.958 123.326 286.953 122.057 294.202 122.057V120.057ZM275.236 124.041C270.061 126.827 267.534 131.719 267.534 138.445H269.534C269.534 132.291 271.79 128.168 276.184 125.802L275.236 124.041ZM267.534 138.445C267.534 142.356 268.345 145.739 270.021 148.549C271.7 151.364 274.208 153.537 277.492 155.082L278.343 153.273C275.371 151.874 273.187 149.953 271.738 147.524C270.286 145.09 269.534 142.079 269.534 138.445H267.534ZM277.492 155.082C283.825 158.062 291.071 160.476 299.224 162.329L299.667 160.378C291.628 158.551 284.523 156.18 278.343 153.273L277.492 155.082ZM299.25 162.334C306.577 163.799 315.106 165.908 324.841 168.664L325.386 166.739C315.617 163.974 307.034 161.851 299.642 160.373L299.25 162.334ZM324.863 168.669C334.624 171.2 343.115 176.077 350.351 183.313L351.765 181.898C344.281 174.414 335.476 169.355 325.365 166.733L324.863 168.669ZM350.368 183.33C357.637 190.244 361.374 201.151 361.374 216.277H363.374C363.374 200.86 359.566 189.319 351.747 181.881L350.368 183.33ZM506.346 195.577L506.946 196.377L506.948 196.376L506.346 195.577ZM432.378 210.481V209.481H431.378V210.481H432.378ZM432.378 239.185H431.378V240.185H432.378V239.185ZM459.978 239.185H460.978V238.185H459.978V239.185ZM459.978 270.649V271.649H460.978V270.649H459.978ZM376.074 270.649H375.074V271.649H376.074V270.649ZM376.074 239.185V238.185H375.074V239.185H376.074ZM395.394 239.185V240.185H396.394V239.185H395.394ZM395.394 122.713H396.394V121.713H395.394V122.713ZM376.074 122.713H375.074V123.713H376.074V122.713ZM376.074 91.2494V90.2494H375.074V91.2494H376.074ZM509.106 106.981L509.777 106.24L509.106 106.981ZM479.298 129.889L478.591 130.597L478.598 130.603L478.605 130.61L479.298 129.889ZM432.378 122.713V121.713H431.378V122.713H432.378ZM432.378 179.293H431.378V180.293H432.378V179.293ZM479.298 171.289L478.567 170.608L478.56 170.615L478.554 170.622L479.298 171.289ZM525.494 149.761C525.494 169.947 518.871 184.889 505.745 194.779L506.948 196.376C520.686 186.026 527.494 170.424 527.494 149.761H525.494ZM505.746 194.777C492.683 204.575 477.441 209.481 459.978 209.481V211.481C477.843 211.481 493.513 206.452 506.946 196.377L505.746 194.777ZM459.978 209.481H432.378V211.481H459.978V209.481ZM431.378 210.481V239.185H433.378V210.481H431.378ZM432.378 240.185H459.978V238.185H432.378V240.185ZM458.978 239.185V270.649H460.978V239.185H458.978ZM459.978 269.649H376.074V271.649H459.978V269.649ZM377.074 270.649V239.185H375.074V270.649H377.074ZM376.074 240.185H395.394V238.185H376.074V240.185ZM396.394 239.185V122.713H394.394V239.185H396.394ZM395.394 121.713H376.074V123.713H395.394V121.713ZM377.074 122.713V91.2494H375.074V122.713H377.074ZM376.074 92.2494H458.322V90.2494H376.074V92.2494ZM458.322 92.2494C480.443 92.2494 497.092 97.4601 508.436 107.723L509.777 106.24C497.936 95.5267 480.73 90.2494 458.322 90.2494V92.2494ZM508.436 107.723C519.785 117.992 525.494 131.964 525.494 149.761H527.494C527.494 131.495 521.612 116.947 509.777 106.24L508.436 107.723ZM487.75 150.313C487.75 141.29 485.207 134.191 479.992 129.169L478.605 130.61C483.326 135.156 485.75 141.673 485.75 150.313H487.75ZM480.006 129.182C474.93 124.106 466.026 121.713 453.63 121.713V123.713C465.891 123.713 474.099 126.105 478.591 130.597L480.006 129.182ZM453.63 121.713H432.378V123.713H453.63V121.713ZM431.378 122.713V179.293H433.378V122.713H431.378ZM432.378 180.293H453.078V178.293H432.378V180.293ZM453.078 180.293C465.854 180.293 474.966 177.62 480.043 171.957L478.554 170.622C474.063 175.631 465.695 178.293 453.078 178.293V180.293ZM480.03 171.971C485.202 166.416 487.75 159.164 487.75 150.313H485.75C485.75 158.759 483.331 165.491 478.567 170.608L480.03 171.971ZM697.645 270.649V271.649H698.645V270.649H697.645ZM626.161 270.649H625.161V271.649H626.161V270.649ZM626.161 239.185V238.185H625.161V239.185H626.161ZM640.513 239.185V240.185H641.94L641.452 238.844L640.513 239.185ZM633.889 220.969L634.828 220.628L634.589 219.969H633.889V220.969ZM572.893 220.969V219.969H572.221L571.967 220.591L572.893 220.969ZM565.441 239.185L564.515 238.807L563.951 240.185H565.441V239.185ZM582.277 239.185H583.277V238.185H582.277V239.185ZM582.277 270.649V271.649H583.277V270.649H582.277ZM511.621 270.649H510.621V271.649H511.621V270.649ZM511.621 239.185V238.185H510.621V239.185H511.621ZM527.905 239.185V240.185H528.557L528.82 239.589L527.905 239.185ZM579.241 122.713L580.156 123.117L580.774 121.713H579.241V122.713ZM554.401 122.713H553.401V123.713H554.401V122.713ZM554.401 91.2494V90.2494H553.401V91.2494H554.401ZM615.949 91.2494L616.865 90.8493L616.603 90.2494H615.949V91.2494ZM680.533 239.185L679.616 239.586L679.878 240.185H680.533V239.185ZM697.645 239.185H698.645V238.185H697.645V239.185ZM623.953 194.473V195.473H625.391L624.89 194.125L623.953 194.473ZM605.185 143.965L606.122 143.617L605.88 142.965H605.185V143.965ZM603.529 143.965V142.965H602.851L602.6 143.595L603.529 143.965ZM583.381 194.473L582.452 194.103L581.905 195.473H583.381V194.473ZM697.645 269.649H626.161V271.649H697.645V269.649ZM627.161 270.649V239.185H625.161V270.649H627.161ZM626.161 240.185H640.513V238.185H626.161V240.185ZM641.452 238.844L634.828 220.628L632.949 221.311L639.573 239.527L641.452 238.844ZM633.889 219.969H572.893V221.969H633.889V219.969ZM571.967 220.591L564.515 238.807L566.366 239.564L573.818 221.348L571.967 220.591ZM565.441 240.185H582.277V238.185H565.441V240.185ZM581.277 239.185V270.649H583.277V239.185H581.277ZM582.277 269.649H511.621V271.649H582.277V269.649ZM512.621 270.649V239.185H510.621V270.649H512.621ZM511.621 240.185H527.905V238.185H511.621V240.185ZM528.82 239.589L580.156 123.117L578.326 122.31L526.99 238.782L528.82 239.589ZM579.241 121.713H554.401V123.713H579.241V121.713ZM555.401 122.713V91.2494H553.401V122.713H555.401ZM554.401 92.2494H615.949V90.2494H554.401V92.2494ZM615.032 91.6495L679.616 239.586L681.449 238.785L616.865 90.8493L615.032 91.6495ZM680.533 240.185H697.645V238.185H680.533V240.185ZM696.645 239.185V270.649H698.645V239.185H696.645ZM624.89 194.125L606.122 143.617L604.247 144.314L623.015 194.822L624.89 194.125ZM605.185 142.965H603.529V144.965H605.185V142.965ZM602.6 143.595L582.452 194.103L584.31 194.844L604.457 144.336L602.6 143.595ZM583.381 195.473H623.953V193.473H583.381V195.473Z" fill="#222629" mask="url(#path-7-outside-4_412_969)"/>
<mask id="path-9-outside-5_412_969" maskUnits="userSpaceOnUse" x="7" y="74" width="669" height="194" fill="black">
<rect fill="white" x="7" y="74" width="669" height="194"/>
<path d="M197.201 261H125.717V229.536H140.069L133.445 211.32H72.4485L64.9965 229.536H81.8325V261H11.1765V229.536H27.4605L78.7965 113.064H53.9565V81.6H115.505L180.089 229.536H197.201V261ZM123.509 184.824L104.741 134.316H103.085L82.9365 184.824H123.509ZM336.725 206.628C336.725 225.212 330.469 239.38 317.957 249.132C305.445 258.884 288.241 263.76 266.345 263.76C254.201 263.76 242.057 262.196 229.913 259.068C217.953 255.94 208.477 251.248 201.485 244.992L207.005 200.556L236.537 203.316L236.261 225.12C242.517 228.432 247.853 230.456 252.269 231.192C256.685 231.744 260.457 232.02 263.585 232.02C273.337 232.02 281.341 230.824 287.597 228.432C293.853 225.856 296.981 220.06 296.981 211.044C296.981 201.108 293.301 194.484 285.941 191.172C278.581 187.676 269.933 185.008 259.997 183.168C251.349 181.696 242.609 179.58 233.777 176.82C225.129 173.876 217.861 169.184 211.973 162.744C206.085 156.12 203.141 146.368 203.141 133.488C203.141 113.432 209.949 99.356 223.565 91.26C237.181 82.98 252.085 78.84 268.277 78.84C280.053 78.84 291.277 80.68 301.949 84.36C312.621 87.856 320.809 92.64 326.513 98.712L328.169 137.628L298.637 140.388L296.153 119.412C291.553 116.284 286.861 114.168 282.077 113.064C277.477 111.96 272.969 111.408 268.553 111.408C261.193 111.408 255.029 112.696 250.061 115.272C245.277 117.848 242.885 122.356 242.885 128.796C242.885 136.34 246.013 141.584 252.269 144.528C258.525 147.472 265.701 149.864 273.797 151.704C281.157 153.176 289.713 155.292 299.465 158.052C309.401 160.628 318.049 165.596 325.409 172.956C332.953 180.132 336.725 191.356 336.725 206.628ZM500.846 140.112C500.846 160.536 494.13 175.808 480.698 185.928C467.45 195.864 451.994 200.832 434.33 200.832H406.73V229.536H434.33V261H350.426V229.536H369.746V113.064H350.426V81.6H432.674C454.938 81.6 471.866 86.844 483.458 97.332C495.05 107.82 500.846 122.08 500.846 140.112ZM461.102 140.664C461.102 131.832 458.618 125.024 453.65 120.24C448.866 115.456 440.31 113.064 427.982 113.064H406.73V169.644H427.43C440.126 169.644 448.866 166.976 453.65 161.64C458.618 156.304 461.102 149.312 461.102 140.664ZM671.996 261H600.512V229.536H614.864L608.24 211.32H547.244L539.792 229.536H556.628V261H485.972V229.536H502.256L553.592 113.064H528.752V81.6H590.3L654.884 229.536H671.996V261ZM598.304 184.824L579.536 134.316H577.88L557.732 184.824H598.304Z"/>
</mask>
<path d="M197.201 261H125.717V229.536H140.069L133.445 211.32H72.4485L64.9965 229.536H81.8325V261H11.1765V229.536H27.4605L78.7965 113.064H53.9565V81.6H115.505L180.089 229.536H197.201V261ZM123.509 184.824L104.741 134.316H103.085L82.9365 184.824H123.509ZM336.725 206.628C336.725 225.212 330.469 239.38 317.957 249.132C305.445 258.884 288.241 263.76 266.345 263.76C254.201 263.76 242.057 262.196 229.913 259.068C217.953 255.94 208.477 251.248 201.485 244.992L207.005 200.556L236.537 203.316L236.261 225.12C242.517 228.432 247.853 230.456 252.269 231.192C256.685 231.744 260.457 232.02 263.585 232.02C273.337 232.02 281.341 230.824 287.597 228.432C293.853 225.856 296.981 220.06 296.981 211.044C296.981 201.108 293.301 194.484 285.941 191.172C278.581 187.676 269.933 185.008 259.997 183.168C251.349 181.696 242.609 179.58 233.777 176.82C225.129 173.876 217.861 169.184 211.973 162.744C206.085 156.12 203.141 146.368 203.141 133.488C203.141 113.432 209.949 99.356 223.565 91.26C237.181 82.98 252.085 78.84 268.277 78.84C280.053 78.84 291.277 80.68 301.949 84.36C312.621 87.856 320.809 92.64 326.513 98.712L328.169 137.628L298.637 140.388L296.153 119.412C291.553 116.284 286.861 114.168 282.077 113.064C277.477 111.96 272.969 111.408 268.553 111.408C261.193 111.408 255.029 112.696 250.061 115.272C245.277 117.848 242.885 122.356 242.885 128.796C242.885 136.34 246.013 141.584 252.269 144.528C258.525 147.472 265.701 149.864 273.797 151.704C281.157 153.176 289.713 155.292 299.465 158.052C309.401 160.628 318.049 165.596 325.409 172.956C332.953 180.132 336.725 191.356 336.725 206.628ZM500.846 140.112C500.846 160.536 494.13 175.808 480.698 185.928C467.45 195.864 451.994 200.832 434.33 200.832H406.73V229.536H434.33V261H350.426V229.536H369.746V113.064H350.426V81.6H432.674C454.938 81.6 471.866 86.844 483.458 97.332C495.05 107.82 500.846 122.08 500.846 140.112ZM461.102 140.664C461.102 131.832 458.618 125.024 453.65 120.24C448.866 115.456 440.31 113.064 427.982 113.064H406.73V169.644H427.43C440.126 169.644 448.866 166.976 453.65 161.64C458.618 156.304 461.102 149.312 461.102 140.664ZM671.996 261H600.512V229.536H614.864L608.24 211.32H547.244L539.792 229.536H556.628V261H485.972V229.536H502.256L553.592 113.064H528.752V81.6H590.3L654.884 229.536H671.996V261ZM598.304 184.824L579.536 134.316H577.88L557.732 184.824H598.304Z" fill="#FBF5F0"/>
<path d="M197.201 261V265H201.201V261H197.201ZM125.717 261H121.717V265H125.717V261ZM125.717 229.536V225.536H121.717V229.536H125.717ZM140.069 229.536V233.536H145.779L143.828 228.169L140.069 229.536ZM133.445 211.32L137.204 209.953L136.246 207.32H133.445V211.32ZM72.4485 211.32V207.32H69.7631L68.7463 209.805L72.4485 211.32ZM64.9965 229.536L61.2943 228.021L59.0384 233.536H64.9965V229.536ZM81.8325 229.536H85.8325V225.536H81.8325V229.536ZM81.8325 261V265H85.8325V261H81.8325ZM11.1765 261H7.1765V265H11.1765V261ZM11.1765 229.536V225.536H7.1765V229.536H11.1765ZM27.4605 229.536V233.536H30.0688L31.1207 231.149L27.4605 229.536ZM78.7965 113.064L82.4567 114.677L84.9308 109.064H78.7965V113.064ZM53.9565 113.064H49.9565V117.064H53.9565V113.064ZM53.9565 81.6V77.6H49.9565V81.6H53.9565ZM115.505 81.6L119.17 79.9996L118.123 77.6H115.505V81.6ZM180.089 229.536L176.423 231.136L177.47 233.536H180.089V229.536ZM197.201 229.536H201.201V225.536H197.201V229.536ZM123.509 184.824V188.824H129.262L127.258 183.431L123.509 184.824ZM104.741 134.316L108.49 132.923L107.521 130.316H104.741V134.316ZM103.085 134.316V130.316H100.374L99.3692 132.834L103.085 134.316ZM82.9365 184.824L79.2212 183.342L77.0344 188.824H82.9365V184.824ZM197.201 257H125.717V265H197.201V257ZM129.717 261V229.536H121.717V261H129.717ZM125.717 233.536H140.069V225.536H125.717V233.536ZM143.828 228.169L137.204 209.953L129.685 212.687L136.309 230.903L143.828 228.169ZM133.445 207.32H72.4485V215.32H133.445V207.32ZM68.7463 209.805L61.2943 228.021L68.6987 231.051L76.1507 212.835L68.7463 209.805ZM64.9965 233.536H81.8325V225.536H64.9965V233.536ZM77.8325 229.536V261H85.8325V229.536H77.8325ZM81.8325 257H11.1765V265H81.8325V257ZM15.1765 261V229.536H7.1765V261H15.1765ZM11.1765 233.536H27.4605V225.536H11.1765V233.536ZM31.1207 231.149L82.4567 114.677L75.1363 111.451L23.8003 227.923L31.1207 231.149ZM78.7965 109.064H53.9565V117.064H78.7965V109.064ZM57.9565 113.064V81.6H49.9565V113.064H57.9565ZM53.9565 85.6H115.505V77.6H53.9565V85.6ZM111.839 83.2004L176.423 231.136L183.754 227.936L119.17 79.9996L111.839 83.2004ZM180.089 233.536H197.201V225.536H180.089V233.536ZM193.201 229.536V261H201.201V229.536H193.201ZM127.258 183.431L108.49 132.923L100.991 135.709L119.759 186.217L127.258 183.431ZM104.741 130.316H103.085V138.316H104.741V130.316ZM99.3692 132.834L79.2212 183.342L86.6518 186.306L106.8 135.798L99.3692 132.834ZM82.9365 188.824H123.509V180.824H82.9365V188.824ZM317.957 249.132L320.416 252.287L320.416 252.287L317.957 249.132ZM229.913 259.068L228.901 262.938L228.908 262.94L228.915 262.942L229.913 259.068ZM201.485 244.992L197.515 244.499L197.257 246.577L198.818 247.973L201.485 244.992ZM207.005 200.556L207.377 196.573L203.514 196.212L203.035 200.063L207.005 200.556ZM236.537 203.316L240.537 203.367L240.583 199.677L236.909 199.333L236.537 203.316ZM236.261 225.12L232.261 225.069L232.23 227.512L234.389 228.655L236.261 225.12ZM252.269 231.192L251.611 235.138L251.692 235.151L251.773 235.161L252.269 231.192ZM287.597 228.432L289.026 232.168L289.073 232.15L289.12 232.131L287.597 228.432ZM285.941 191.172L284.225 194.785L284.262 194.803L284.3 194.82L285.941 191.172ZM259.997 183.168L260.725 179.235L260.697 179.23L260.668 179.225L259.997 183.168ZM233.777 176.82L232.488 180.607L232.536 180.623L232.584 180.638L233.777 176.82ZM211.973 162.744L208.983 165.401L209.002 165.422L209.021 165.443L211.973 162.744ZM223.565 91.26L225.609 94.6981L225.626 94.688L225.643 94.6777L223.565 91.26ZM301.949 84.36L300.645 88.1415L300.674 88.1516L300.704 88.1612L301.949 84.36ZM326.513 98.712L330.509 98.5419L330.446 97.0568L329.428 95.9733L326.513 98.712ZM328.169 137.628L328.541 141.611L332.327 141.257L332.165 137.458L328.169 137.628ZM298.637 140.388L294.665 140.858L295.124 144.734L299.009 144.371L298.637 140.388ZM296.153 119.412L300.125 118.942L299.911 117.13L298.402 116.104L296.153 119.412ZM282.077 113.064L281.143 116.954L281.16 116.958L281.178 116.962L282.077 113.064ZM250.061 115.272L248.22 111.721L248.192 111.735L248.165 111.75L250.061 115.272ZM252.269 144.528L253.972 140.909L253.972 140.909L252.269 144.528ZM273.797 151.704L272.91 155.605L272.961 155.616L273.013 155.626L273.797 151.704ZM299.465 158.052L298.376 161.901L298.418 161.913L298.461 161.924L299.465 158.052ZM325.409 172.956L322.581 175.784L322.616 175.82L322.652 175.854L325.409 172.956ZM332.725 206.628C332.725 224.217 326.864 237.118 315.498 245.977L320.416 252.287C334.074 241.642 340.725 226.207 340.725 206.628H332.725ZM315.498 245.977C303.913 255.007 287.684 259.76 266.345 259.76V267.76C288.798 267.76 306.977 262.761 320.416 252.287L315.498 245.977ZM266.345 259.76C254.548 259.76 242.739 258.241 230.911 255.194L228.915 262.942C241.374 266.151 253.854 267.76 266.345 267.76V259.76ZM230.925 255.198C219.392 252.182 210.545 247.731 204.152 242.011L198.818 247.973C206.409 254.765 216.514 259.698 228.901 262.938L230.925 255.198ZM205.454 245.485L210.974 201.049L203.035 200.063L197.515 244.499L205.454 245.485ZM206.633 204.539L236.165 207.299L236.909 199.333L207.377 196.573L206.633 204.539ZM232.537 203.265L232.261 225.069L240.261 225.171L240.537 203.367L232.537 203.265ZM234.389 228.655C240.831 232.066 246.599 234.302 251.611 235.138L252.927 227.246C249.107 226.61 244.203 224.798 238.133 221.585L234.389 228.655ZM251.773 235.161C256.291 235.726 260.238 236.02 263.585 236.02V228.02C260.676 228.02 257.079 227.762 252.765 227.223L251.773 235.161ZM263.585 236.02C273.622 236.02 282.156 234.795 289.026 232.168L286.168 224.696C280.526 226.853 273.052 228.02 263.585 228.02V236.02ZM289.12 232.131C293.076 230.502 296.14 227.787 298.155 224.053C300.129 220.396 300.981 215.982 300.981 211.044H292.981C292.981 215.122 292.269 218.114 291.115 220.253C290.002 222.315 288.374 223.786 286.074 224.733L289.12 232.131ZM300.981 211.044C300.981 205.601 299.975 200.744 297.718 196.681C295.431 192.565 291.994 189.509 287.582 187.524L284.3 194.82C287.248 196.147 289.331 198.059 290.724 200.567C292.147 203.128 292.981 206.551 292.981 211.044H300.981ZM287.657 187.559C279.919 183.883 270.925 181.124 260.725 179.235L259.269 187.101C268.941 188.892 277.243 191.469 284.225 194.785L287.657 187.559ZM260.668 179.225C252.206 177.784 243.64 175.712 234.97 173.002L232.584 180.638C241.578 183.448 250.492 185.608 259.326 187.111L260.668 179.225ZM235.066 173.033C227.024 170.296 220.337 165.965 214.925 160.045L209.021 165.443C215.384 172.403 223.234 177.456 232.488 180.607L235.066 173.033ZM214.963 160.087C209.967 154.466 207.141 145.825 207.141 133.488H199.141C199.141 146.911 202.203 157.774 208.983 165.401L214.963 160.087ZM207.141 133.488C207.141 114.41 213.537 101.876 225.609 94.6981L221.521 87.8219C206.361 96.8356 199.141 112.454 199.141 133.488H207.141ZM225.643 94.6777C238.622 86.785 252.806 82.84 268.277 82.84V74.84C251.364 74.84 235.74 79.175 221.487 87.8423L225.643 94.6777ZM268.277 82.84C279.629 82.84 290.41 84.6123 300.645 88.1415L303.253 80.5785C292.143 76.7477 280.477 74.84 268.277 74.84V82.84ZM300.704 88.1612C310.951 91.5182 318.484 96.0077 323.598 101.451L329.428 95.9733C323.133 89.2723 314.291 84.1938 303.194 80.5588L300.704 88.1612ZM322.517 98.8821L324.173 137.798L332.165 137.458L330.509 98.5419L322.517 98.8821ZM327.797 133.645L298.265 136.405L299.009 144.371L328.541 141.611L327.797 133.645ZM302.609 139.918L300.125 118.942L292.181 119.882L294.665 140.858L302.609 139.918ZM298.402 116.104C293.447 112.735 288.303 110.396 282.976 109.166L281.178 116.962C285.419 117.94 289.659 119.833 293.904 122.72L298.402 116.104ZM283.01 109.174C278.126 108.002 273.305 107.408 268.553 107.408V115.408C272.633 115.408 276.828 115.918 281.143 116.954L283.01 109.174ZM268.553 107.408C260.747 107.408 253.907 108.772 248.22 111.721L251.902 118.823C256.151 116.62 261.639 115.408 268.553 115.408V107.408ZM248.165 111.75C241.82 115.166 238.885 121.212 238.885 128.796H246.885C246.885 123.5 248.734 120.53 251.957 118.794L248.165 111.75ZM238.885 128.796C238.885 133.12 239.784 137.064 241.796 140.436C243.82 143.83 246.816 146.382 250.566 148.147L253.972 140.909C251.466 139.73 249.77 138.188 248.666 136.338C247.55 134.466 246.885 132.016 246.885 128.796H238.885ZM250.566 148.147C257.129 151.236 264.587 153.713 272.91 155.605L274.683 147.803C266.815 146.015 259.921 143.708 253.972 140.909L250.566 148.147ZM273.013 155.626C280.242 157.072 288.692 159.16 298.376 161.901L300.554 154.203C290.734 151.424 282.072 149.28 274.581 147.782L273.013 155.626ZM298.461 161.924C307.697 164.318 315.717 168.921 322.581 175.784L328.237 170.128C320.381 162.271 311.105 156.938 300.469 154.18L298.461 161.924ZM322.652 175.854C329.094 181.982 332.725 191.938 332.725 206.628H340.725C340.725 190.774 336.812 178.282 328.166 170.058L322.652 175.854ZM480.698 185.928L483.098 189.128L483.105 189.123L480.698 185.928ZM406.73 200.832V196.832H402.73V200.832H406.73ZM406.73 229.536H402.73V233.536H406.73V229.536ZM434.33 229.536H438.33V225.536H434.33V229.536ZM434.33 261V265H438.33V261H434.33ZM350.426 261H346.426V265H350.426V261ZM350.426 229.536V225.536H346.426V229.536H350.426ZM369.746 229.536V233.536H373.746V229.536H369.746ZM369.746 113.064H373.746V109.064H369.746V113.064ZM350.426 113.064H346.426V117.064H350.426V113.064ZM350.426 81.6V77.6H346.426V81.6H350.426ZM483.458 97.332L486.141 94.3658L486.141 94.3658L483.458 97.332ZM453.65 120.24L450.821 123.068L450.848 123.095L450.875 123.121L453.65 120.24ZM406.73 113.064V109.064H402.73V113.064H406.73ZM406.73 169.644H402.73V173.644H406.73V169.644ZM453.65 161.64L450.722 158.914L450.697 158.942L450.672 158.97L453.65 161.64ZM496.846 140.112C496.846 159.581 490.501 173.534 478.291 182.733L483.105 189.123C497.758 178.082 504.846 161.491 504.846 140.112H496.846ZM478.298 182.728C465.79 192.109 451.19 196.832 434.33 196.832V204.832C452.798 204.832 469.11 199.619 483.098 189.128L478.298 182.728ZM434.33 196.832H406.73V204.832H434.33V196.832ZM402.73 200.832V229.536H410.73V200.832H402.73ZM406.73 233.536H434.33V225.536H406.73V233.536ZM430.33 229.536V261H438.33V229.536H430.33ZM434.33 257H350.426V265H434.33V257ZM354.426 261V229.536H346.426V261H354.426ZM350.426 233.536H369.746V225.536H350.426V233.536ZM373.746 229.536V113.064H365.746V229.536H373.746ZM369.746 109.064H350.426V117.064H369.746V109.064ZM354.426 113.064V81.6H346.426V113.064H354.426ZM350.426 85.6H432.674V77.6H350.426V85.6ZM432.674 85.6C454.364 85.6 470.178 90.7109 480.774 100.298L486.141 94.3658C473.554 82.9771 455.512 77.6 432.674 77.6V85.6ZM480.774 100.298C491.396 109.908 496.846 123.019 496.846 140.112H504.846C504.846 121.141 498.704 105.732 486.141 94.3658L480.774 100.298ZM465.102 140.664C465.102 131.066 462.38 123.094 456.424 117.359L450.875 123.121C454.855 126.954 457.102 132.598 457.102 140.664H465.102ZM456.478 117.412C450.526 111.459 440.579 109.064 427.982 109.064V117.064C440.041 117.064 447.206 119.453 450.821 123.068L456.478 117.412ZM427.982 109.064H406.73V117.064H427.982V109.064ZM402.73 113.064V169.644H410.73V113.064H402.73ZM406.73 173.644H427.43V165.644H406.73V173.644ZM427.43 173.644C440.442 173.644 450.671 170.955 456.628 164.31L450.672 158.97C447.061 162.997 439.81 165.644 427.43 165.644V173.644ZM456.577 164.366C462.36 158.155 465.102 150.123 465.102 140.664H457.102C457.102 148.501 454.876 154.453 450.722 158.914L456.577 164.366ZM671.996 261V265H675.996V261H671.996ZM600.512 261H596.512V265H600.512V261ZM600.512 229.536V225.536H596.512V229.536H600.512ZM614.864 229.536V233.536H620.575L618.623 228.169L614.864 229.536ZM608.24 211.32L611.999 209.953L611.042 207.32H608.24V211.32ZM547.244 211.32V207.32H544.559L543.542 209.805L547.244 211.32ZM539.792 229.536L536.09 228.021L533.834 233.536H539.792V229.536ZM556.628 229.536H560.628V225.536H556.628V229.536ZM556.628 261V265H560.628V261H556.628ZM485.972 261H481.972V265H485.972V261ZM485.972 229.536V225.536H481.972V229.536H485.972ZM502.256 229.536V233.536H504.864L505.916 231.149L502.256 229.536ZM553.592 113.064L557.252 114.677L559.726 109.064H553.592V113.064ZM528.752 113.064H524.752V117.064H528.752V113.064ZM528.752 81.6V77.6H524.752V81.6H528.752ZM590.3 81.6L593.966 79.9996L592.918 77.6H590.3V81.6ZM654.884 229.536L651.218 231.136L652.266 233.536H654.884V229.536ZM671.996 229.536H675.996V225.536H671.996V229.536ZM598.304 184.824V188.824H604.058L602.053 183.431L598.304 184.824ZM579.536 134.316L583.285 132.923L582.317 130.316H579.536V134.316ZM577.88 134.316V130.316H575.169L574.165 132.834L577.88 134.316ZM557.732 184.824L554.017 183.342L551.83 188.824H557.732V184.824ZM671.996 257H600.512V265H671.996V257ZM604.512 261V229.536H596.512V261H604.512ZM600.512 233.536H614.864V225.536H600.512V233.536ZM618.623 228.169L611.999 209.953L604.481 212.687L611.105 230.903L618.623 228.169ZM608.24 207.32H547.244V215.32H608.24V207.32ZM543.542 209.805L536.09 228.021L543.494 231.051L550.946 212.835L543.542 209.805ZM539.792 233.536H556.628V225.536H539.792V233.536ZM552.628 229.536V261H560.628V229.536H552.628ZM556.628 257H485.972V265H556.628V257ZM489.972 261V229.536H481.972V261H489.972ZM485.972 233.536H502.256V225.536H485.972V233.536ZM505.916 231.149L557.252 114.677L549.932 111.451L498.596 227.923L505.916 231.149ZM553.592 109.064H528.752V117.064H553.592V109.064ZM532.752 113.064V81.6H524.752V113.064H532.752ZM528.752 85.6H590.3V77.6H528.752V85.6ZM586.634 83.2004L651.218 231.136L658.55 227.936L593.966 79.9996L586.634 83.2004ZM654.884 233.536H671.996V225.536H654.884V233.536ZM667.996 229.536V261H675.996V229.536H667.996ZM602.053 183.431L583.285 132.923L575.786 135.709L594.554 186.217L602.053 183.431ZM579.536 130.316H577.88V138.316H579.536V130.316ZM574.165 132.834L554.017 183.342L561.447 186.306L581.595 135.798L574.165 132.834ZM557.732 188.824H598.304V180.824H557.732V188.824Z" fill="#222629" mask="url(#path-9-outside-5_412_969)"/>
</svg>
